<svg xmlns="http://www.w3.org/2000/svg" xmlns:xlink="http://www.w3.org/1999/xlink" width="17" height="11" viewBox="0 0 17 11"><defs><path id="f7jna" d="M33.1 980.56v-1.1h4.26v1.1zm-2.84 4.5a3 3 0 0 1 .41 1.62 3.3 3.3 0 0 1-1.22 2.62c-.33.27-.73.45-1.2.55-.45.1-.95.15-1.48.15H22v-11h5.11c1.29.02 2.2.41 2.74 1.17.32.47.48 1.03.48 1.68 0 .67-.16 1.21-.48 1.62a2.5 2.5 0 0 1-.81.63c.54.2.95.52 1.22.97zm-5.82-1.72h2.24c.46 0 .83-.1 1.12-.28.28-.18.43-.5.43-.96 0-.51-.2-.85-.57-1.02a3.87 3.87 0 0 0-1.25-.17h-1.97zm4 3.18c0-.57-.22-.96-.67-1.17-.25-.13-.6-.19-1.06-.2h-2.27v2.94h2.24c.46 0 .81-.06 1.07-.2.46-.23.7-.69.7-1.37zm10.5-1.79c.05.36.07.89.06 1.57h-5.52c.03.79.3 1.34.8 1.66.3.2.66.3 1.09.3.45 0 .82-.12 1.1-.36.15-.13.29-.32.4-.55h2.03c-.05.47-.3.95-.74 1.43a3.61 3.61 0 0 1-2.85 1.15c-1 0-1.9-.33-2.67-.97-.77-.65-1.15-1.7-1.15-3.16 0-1.36.35-2.41 1.04-3.14.7-.73 1.6-1.1 2.71-1.1.66 0 1.25.13 1.78.38.53.24.97.63 1.31 1.16.31.47.51 1.02.6 1.63zm-2.52-1.04c-.32-.28-.7-.42-1.18-.42-.5 0-.9.15-1.18.45-.28.3-.46.7-.53 1.22h3.42a1.75 1.75 0 0 0-.53-1.25z"/></defs><g><g transform="translate(-22 -979)"><use fill="#b1b7cf" xlink:href="#f7jna"/></g></g></svg>