<svg xmlns="http://www.w3.org/2000/svg" xmlns:xlink="http://www.w3.org/1999/xlink" width="55" height="62" viewBox="0 0 55 62"><defs><path id="wilda" d="M827.02 5427.91c-1.6 0-1.94-6.58-1.94-6.65v-36.58l-1.5 1.47v12.09h-1.2v-12.59l2.7-2.63v-1.53c0-.68.56-1.25 1.25-1.26h1.38c.69.01 1.25.58 1.25 1.26v39.77c0 .07-.33 6.65-1.94 6.65zm.75-46.42c0-.04-.04-.07-.08-.07h-1.34c-.04 0-.08.03-.08.07v1.54h1.5zm0 2.82h-1.5v15.5h1.5zm0 16.69h-1.5v17.65h1.5zm-19.57 28.17c-.36.36-.85.56-1.36.56h-29.96a1.94 1.94 0 0 1-1.94-1.94v-57.13c0-1.07.87-1.94 1.94-1.94h40.93c1.07 0 1.93.87 1.93 1.94v46.26c0 .51-.2 1.01-.57 1.37zm-.21-1.46l9.71-9.64h-8.97a.75.75 0 0 0-.74.75zm10.56-57.05a.75.75 0 0 0-.74-.75h-40.93a.75.75 0 0 0-.75.75v57.13c0 .41.33.75.75.75h29.92v-9.72c0-1.07.86-1.94 1.93-1.94h9.82zm-38.32 38.51h32.2v1.19h-32.2zm0-8.4h32.88v1.19h-32.88zm.34-20.17h32.88v1.19h-32.88zm0-4.7h20.13v1.19h-20.13zm30.2 8.4v1.19h-30.2v-1.19zm2.34 6.57h-32.88v-1.19h32.88zm0 3.7h-32.88v-1.2h32.88zm0 3.69h-32.88v-1.19h32.88zm-.67 8.4h-32.2v-1.19h32.2zm-4.03 7.4h-28.18v-1.19h28.18zm-18.78 6.72h-9.4v-1.19h9.4z"/></defs><g><g transform="translate(-774 -5368)"><use fill="#1b6fec" xlink:href="#wilda"/></g></g></svg>