<svg xmlns="http://www.w3.org/2000/svg" xmlns:xlink="http://www.w3.org/1999/xlink" width="55" height="44" viewBox="0 0 55 44"><defs><path id="ixyga" d="M1230 5391.67h-3.16v19.28H1175v-43h51.84V5383h3.16zm-4.36-22.51h-49.44v4.99h49.44zm0 6.2h-49.44v34.38h49.44v-18.07h-33.62l-8.58-4.33 8.58-4.34h33.62zm-33.64 9l-5.89 2.98 5.89 2.97zm1.2 2.38h32.44v-2.53h-32.44zm0 1.2v2.53h32.44v-2.53zm35.6-3.73h-1.96v6.26h1.96zm-48.12 10.85h40.51v-1.65h1.2v2.85h-42.91v-18.37h42.91v3.19h-1.2v-1.98h-40.51zm11.14 12.15h-12.37v-8.67h12.37zm-1.2-7.46h-9.97v6.26h9.97zm16.49 7.46h-12.37v-8.67h12.37zm-1.2-7.46h-9.97v6.26h9.97zm16.49 7.46h-12.37v-8.67h12.37zm-1.2-7.46h-9.97v6.26h9.97zm-41.13-27.59h-1.49v-1.2h1.49zm3.35 0h-1.49v-1.2h1.49zm3.35 0h-1.49v-1.2h1.49z"/></defs><g><g transform="translate(-1175 -5367)"><use fill="#1b6fec" xlink:href="#ixyga"/></g></g></svg>