<svg xmlns="http://www.w3.org/2000/svg" xmlns:xlink="http://www.w3.org/1999/xlink" width="15" height="15" viewBox="0 0 15 15"><defs><path id="wzkfa" d="M30.5 1040a7.52 7.52 0 0 1-7.5-7.5c0-4.14 3.38-7.5 7.5-7.5s7.5 3.38 7.5 7.5-3.36 7.5-7.5 7.5zm6.33-6.48c-.22-.06-2-.59-4-.26a28.11 28.11 0 0 1 1.24 4.57 6.56 6.56 0 0 0 2.76-4.31zm-5.2 0h-.04c-3.59 1.28-4.9 3.78-5.02 4a6.5 6.5 0 0 0 6.43.88c-.1-.57-.47-2.54-1.37-4.88zm-.68-.94c.1-.04.16-.06.27-.06-.17-.37-.33-.74-.54-1.11-3.2.97-6.29.93-6.6.91v.2a6.4 6.4 0 0 0 1.67 4.28c.12-.22 1.9-3.15 5.2-4.22zm-6.72-1.37c.3 0 2.93 0 5.92-.76-1.06-1.9-2.2-3.46-2.36-3.69a6.21 6.21 0 0 0-3.56 4.45zm7.17-1.17a7.63 7.63 0 0 0 3.36-2.29 6.32 6.32 0 0 0-4.22-1.6 4.22 4.22 0 0 0-1.54.16c.17.23 1.34 1.83 2.4 3.73zm4.06-1.58c-.14.17-1.19 1.56-3.57 2.54.15.31.31.6.43.93l.15.32c2.13-.26 4.26.17 4.46.21a6.56 6.56 0 0 0-1.47-4z"/></defs><g><g transform="translate(-23 -1025)"><use fill="#b1b7cf" xlink:href="#wzkfa"/></g></g></svg>