<svg xmlns="http://www.w3.org/2000/svg" xmlns:xlink="http://www.w3.org/1999/xlink" width="7" height="14" viewBox="0 0 7 14"><defs><path id="tieza" d="M592.74 6768h-1.68c-1.89 0-3.1 1.35-3.1 3.45v1.58h-1.7c-.14 0-.26.13-.26.29v2.3c0 .16.12.29.26.29h1.7v5.8c0 .16.11.29.26.29h2.2c.14 0 .26-.13.26-.29v-5.8h1.98c.14 0 .26-.13.26-.29v-2.3a.28.28 0 0 0-.08-.2.24.24 0 0 0-.18-.09h-1.98v-1.34c0-.65.14-.98.92-.98h1.14c.14 0 .26-.13.26-.28v-2.14c0-.16-.12-.29-.26-.29z"/></defs><g><g transform="translate(-586 -6768)"><use fill="#4c5672" xlink:href="#tieza"/></g></g></svg>