<svg xmlns="http://www.w3.org/2000/svg" xmlns:xlink="http://www.w3.org/1999/xlink" width="7" height="15" viewBox="0 0 7 15"><defs><path id="1qrza" d="M33.74 929h-1.68c-1.89 0-3.1 1.45-3.1 3.7v1.7h-1.7c-.14 0-.26.13-.26.3v2.47c0 .17.12.3.26.3h1.7v6.23c0 .16.11.3.26.3h2.2c.14 0 .26-.14.26-.3v-6.23h1.98c.14 0 .26-.13.26-.3v-2.47a.33.33 0 0 0-.08-.22.25.25 0 0 0-.18-.09h-1.98v-1.44c0-.7.15-1.05.92-1.05h1.14c.14 0 .26-.13.26-.3v-2.3c0-.16-.12-.3-.26-.3z"/></defs><g><g transform="translate(-27 -929)"><use fill="#b1b7cf" xlink:href="#1qrza"/></g></g></svg>