<svg xmlns="http://www.w3.org/2000/svg" xmlns:xlink="http://www.w3.org/1999/xlink" width="55" height="52" viewBox="0 0 55 52"><defs><path id="u4cla" d="M429.97 5626.73v4.06l-2.1.31-.3 1.01 1.73 1.22-2.04 3.53-1.98-.8-.76.76.8 1.91-3.52 2.03-1.3-1.66-1.01.26-.25 2.09h-4.14l-.25-2.1-1.02-.3-1.29 1.65-3.52-2.03.8-1.91-.76-.8-1.9.86-2.05-3.53 1.67-1.29-.26-1.07-2.1-.24v-4.06l2.1-.31.3-1.02-1.66-1.22 2.04-3.51 1.97.74.75-.72-.86-1.9 3.6-2.03 1.3 1.66 1-.26.25-2.09h4.08l.3 2.1 1.02.29 1.23-1.72 3.6 2.11-.8 1.91.71.75 1.96-.79 2.03 3.5-1.68 1.31.24 1.06zm-2.2-2.91l-.98-1.7-1.74.71-1.84-1.91.7-1.67-1.73-1.01-1.09 1.52-2.58-.75-.27-1.83h-1.95l-.22 1.84-2.58.66-1.14-1.46-1.74.98.77 1.67-1.92 1.83-1.73-.65-.98 1.7 1.47 1.08-.75 2.57-1.84.27v1.95l1.85.22.66 2.63-1.46 1.13.97 1.67 1.7-.75 1.9 1.97-.7 1.67 1.69.98 1.14-1.47 2.58.74.21 1.83h2l.22-1.84 2.58-.66 1.14 1.45 1.69-.97-.7-1.68 1.9-1.89 1.73.7.97-1.67-1.52-1.09.75-2.57 1.84-.27v-1.95l-1.87-.22-.58-2.64zm-10.57 9.94a5.06 5.06 0 1 1 0 0zm0-8.9a3.86 3.86 0 0 0-3.86 3.85 3.86 3.86 0 0 0 7.72 0 3.86 3.86 0 0 0-3.86-3.85zm-13.03 12.79l1.35 1.43 2.77-1.2 2.8 4.73-2.43 1.93.45 1.88 3.01.36v5.51l-3.03.42-.53 1.83 2.41 1.87-2.72 4.72-2.85-1.15-1.4 1.35 1.15 2.83-4.74 2.72-1.87-2.41-1.89.49-.36 3.01h-5.52l-.43-3.02-1.88-.53-1.81 2.4-4.8-2.71 1.15-2.85-1.36-1.44-2.83 1.2-2.73-4.72 2.42-1.93-.5-1.88-3.02-.37v-5.5l3.04-.42.57-1.84-2.46-1.86 2.8-4.72 2.84 1.15 1.39-1.35-1.21-2.83 4.8-2.72 1.88 2.41 1.88-.49.36-3.01h5.53l.42 3.02 1.89.53 1.8-2.4 4.81 2.71zm-3.32-4l-1.67 2.22-3.45-.97-.38-2.76h-3.4l-.34 2.77-3.45.9-1.72-2.22-2.96 1.68 1.11 2.6-2.55 2.46-2.6-1.05-1.73 2.91 2.29 1.72-1.05 3.37-2.76.39v3.39l2.77.33.9 3.43-2.22 1.77 1.68 2.91 2.62-1.11 2.47 2.6-1.05 2.59 2.96 1.67 1.67-2.21 3.44.97.39 2.76h3.4l.33-2.77 3.45-.9 1.72 2.21 2.92-1.67-1.06-2.61 2.54-2.46 2.6 1.05 1.68-2.9-2.22-1.73.97-3.36 2.77-.39v-3.39l-2.79-.33-.82-3.44 2.2-1.76-1.72-2.91-2.56 1.11-2.47-2.61 1.05-2.58zm-7.3 24.49a8.7 8.7 0 0 1-8.71-8.69 8.71 8.71 0 0 1 17.43 0 8.7 8.7 0 0 1-8.72 8.69zm0-16.17a7.5 7.5 0 0 0-7.5 7.48 7.5 7.5 0 0 0 15.01 0 7.5 7.5 0 0 0-7.5-7.48zm.3-3.18a10.98 10.98 0 0 0-11 10.95.6.6 0 0 1-1.2 0 12.2 12.2 0 0 1 12.2-12.16.6.6 0 0 1 0 1.21zm20.08 7l2.5-2.48 1.54 1.01.36-1.77h3.54l.35 1.77 1.55-1.01 2.49 2.48-1.01 1.55 1.77.35v3.53l-1.77.35 1.01 1.55-2.49 2.48-1.55-1.01-.35 1.76h-3.54l-.36-1.76-1.55 1.01-2.49-2.48 1.02-1.55-1.77-.35v-3.53l1.77-.35zm.45 2.89v1.55l1.58.32.4 1.06-.88 1.35 1.1 1.1 1.36-.88 1.06.39.32 1.58h1.56l.31-1.58 1.07-.39 1.35.88 1.1-1.1-.88-1.35.4-1.06 1.58-.32v-1.55l-1.58-.32-.4-1.06.88-1.35-1.1-1.1-1.35.88-1.07-.4-.31-1.57h-1.56l-.32 1.57-1.06.4-1.36-.88-1.1 1.1.89 1.35-.4 1.06zm5.72-2.2a2.98 2.98 0 1 1 0 0zm0 4.74c.97 0 1.77-.79 1.77-1.77a1.77 1.77 0 0 0-3.55 0c0 .98.8 1.77 1.78 1.77z"/></defs><g><g transform="translate(-375 -5616)"><use fill="#1b6fec" xlink:href="#u4cla"/></g></g></svg>