<svg xmlns="http://www.w3.org/2000/svg" xmlns:xlink="http://www.w3.org/1999/xlink" width="42" height="46" viewBox="0 0 42 46"><defs><path id="yzh2a" d="M605.04 1620.61c.14.32.16.68.04 1.01A18.63 18.63 0 0 1 587.6 1634c-10.27 0-18.6-8.45-18.6-18.87 0-9.95 7.6-18.11 17.22-18.82.36-.03.71.09.97.34.27.25.42.6.42.96v16.33l16.7 6c.32.11.58.36.73.67zm-1.65-26.12l-12.17 11.15v-16.34a1.31 1.31 0 0 1 1.38-1.3c4.1.31 7.84 1.96 10.77 4.54a1.3 1.3 0 0 1 .02 1.95zm7.23 21.4a1.28 1.28 0 0 1-1.7.97l-16.53-5.94 12.27-11.23c.26-.24.6-.36.94-.34.35.03.67.19.9.45a19.06 19.06 0 0 1 4.12 16.09z"/></defs><g><g transform="translate(-569 -1588)"><use fill="#fff" xlink:href="#yzh2a"/></g></g></svg>