<svg xmlns="http://www.w3.org/2000/svg" xmlns:xlink="http://www.w3.org/1999/xlink" width="50" height="37" viewBox="0 0 50 37"><defs><path id="leida" d="M1369 1952.29v30.47a3.17 3.17 0 0 1-3.22 3.24h-43.38a3.3 3.3 0 0 1-3.4-3.24v-30.47a3.37 3.37 0 0 1 3.4-3.29h43.38a3.2 3.2 0 0 1 3.22 3.29zm-39.81-.21c0 .66.54 1.2 1.22 1.2.67 0 1.22-.54 1.22-1.2 0-.67-.55-1.21-1.22-1.21-.68 0-1.22.54-1.22 1.21zm-3.51 0c0 .66.55 1.2 1.22 1.2a1.2 1.2 0 0 0 1.22-1.2c0-.67-.54-1.21-1.22-1.21-.67 0-1.22.54-1.22 1.21zm-3.5 0c0 .66.55 1.2 1.22 1.2.67 0 1.22-.54 1.22-1.2 0-.67-.55-1.21-1.22-1.21-.67 0-1.22.54-1.22 1.21zm43.79 30.84v-27.66c0-.05.02-.09-.03-.09h-43.75c-.05 0-.16.04-.16.09v27.75h43.91c.05 0 .03-.04.03-.09zm.06-30.83c0-.67-.54-1.21-1.22-1.21l-13.26-.01c-.67 0-1.22.55-1.22 1.22 0 .66.55 1.21 1.22 1.21h13.26c.68 0 1.22-.55 1.22-1.21zm-40.7 9.34c0-.67.55-1.22 1.22-1.22l13.26.01a1.21 1.21 0 1 1 0 2.42h-13.26c-.67 0-1.22-.54-1.22-1.21zm15.7 4.11c0 .67-.54 1.21-1.22 1.21h-13.26c-.67 0-1.22-.54-1.22-1.21 0-.67.55-1.21 1.22-1.21h13.26c.68 0 1.22.54 1.22 1.21zm0 4.11c0 .67-.54 1.21-1.22 1.21h-13.26c-.67 0-1.22-.54-1.22-1.21 0-.67.55-1.21 1.22-1.21h13.26c.68 0 1.22.54 1.22 1.21zm0 4.11c0 .67-.54 1.21-1.22 1.21h-13.26c-.67 0-1.22-.54-1.22-1.21 0-.67.55-1.21 1.22-1.21h13.26c.68 0 1.22.54 1.22 1.21zm21.72-11.59V1976c0 1.29-1 2.34-2.3 2.34h-14.11a2.32 2.32 0 0 1-2.34-2.24v-13.93a2.4 2.4 0 0 1 2.43-2.33h14.02a2.3 2.3 0 0 1 2.3 2.33z"/></defs><g><g transform="translate(-1319 -1949)"><use fill="#fff" xlink:href="#leida"/></g></g></svg>