<svg xmlns="http://www.w3.org/2000/svg" xmlns:xlink="http://www.w3.org/1999/xlink" width="46" height="43" viewBox="0 0 46 43"><defs><path id="utosa" d="M596.87 1959.74c.19.72-.24 1.46-.95 1.66l-4 1.07a1.35 1.35 0 0 1-1.65-.97c-.2-.72.23-1.46.95-1.66l4-1.07c.71-.19 1.45.24 1.64.97zm-.72 9.61c-.37.65-1.2.87-1.84.49l-3.3-1.92a1.36 1.36 0 0 1-.5-1.85c.37-.65 1.2-.87 1.84-.5l3.3 1.93c.65.37.87 1.2.5 1.85zm-4.22-15.73l-1.9 3.32c-.37.65-1.2.87-1.84.49a1.36 1.36 0 0 1-.5-1.85l1.9-3.32a1.36 1.36 0 0 1 2.34 1.36zm-26.25 4.64l4.22 15.73-6.51 1.74a4.03 4.03 0 0 1-4.37-1.64l-.24.07a5.5 5.5 0 0 1-6.7-3.83 5.5 5.5 0 0 1 3.89-6.66l.24-.07a4.04 4.04 0 0 1 2.96-3.6zm16.82-10.13l7.03 26.22a2.7 2.7 0 0 1-1.9 3.32 2.71 2.71 0 0 1-3.31-1.93l-7.03-26.21a2.7 2.7 0 1 1 5.21-1.4zm-11.9 28.48l1.76 6.55a4.06 4.06 0 0 1-2.86 4.98 4.05 4.05 0 0 1-4.95-2.88l-1.8-6.69c.45-.03.9-.1 1.34-.22zm4.3-25.62l6.6 24.68-1.44-.84a11.53 11.53 0 0 0-7.53-1.41l-4.28-15.99a11.5 11.5 0 0 0 5.81-4.98z"/></defs><g><g transform="translate(-551 -1946)"><use fill="#fff" xlink:href="#utosa"/></g></g></svg>