<svg xmlns="http://www.w3.org/2000/svg" xmlns:xlink="http://www.w3.org/1999/xlink" width="46" height="46" viewBox="0 0 46 46"><defs><path id="45tza" d="M949.38 1396.59l-11.01-3.34A23 23 0 0 1 960 1378c5.2 0 10 1.75 13.84 4.67l-7.38 8.82a11.5 11.5 0 0 0-17.08 5.1zm10.87 15.9l1.4 11.43a23 23 0 0 1-23.96-28.47l11.03 3.34A11.5 11.5 0 0 0 960 1412.5l.25-.01zM983 1401a23 23 0 0 1-19.06 22.64l-1.4-11.43a11.5 11.5 0 0 0 5.68-19.24l7.39-8.83A22.9 22.9 0 0 1 983 1401zm-29.25 6.03v-9.25h2.78v9.25zm4.88 0v-5.94h2.78v5.94zm4.84 0v-12.06h2.78v12.06z"/></defs><g><g transform="translate(-937 -1378)"><use fill="#fff" xlink:href="#45tza"/></g></g></svg>