<svg xmlns="http://www.w3.org/2000/svg" xmlns:xlink="http://www.w3.org/1999/xlink" width="42" height="46" viewBox="0 0 42 46"><defs><path id="peuma" d="M959.03 2126.84V2123h1.94v3.84zm-10.36-.54l1.66-.95 1.9 3.32-1.65.95zm-7.33 8.07l.95-1.66 3.3 1.92-.95 1.66zm-2.34 10.66v-1.91h3.81v1.91zm2.34 8.76l3.3-1.91.96 1.66-3.31 1.91zm33.06-.26l.95-1.66 3.31 1.92-.95 1.66zm2.79-8.5v-1.91H981v1.91zm-2.79-10.4l3.31-1.92.95 1.66-3.3 1.92zm-6.64-5.97l1.91-3.32 1.66.96-1.91 3.32zm.39 32.67c-.12.64-.22 1.28-.3 1.92h-15.7a32.6 32.6 0 0 0-.28-1.92zm-.46 3.83c-.03.49-.05.98-.05 1.46v2.38h-15.28v-1.97c0-.63-.02-1.25-.06-1.87zm2.81-1.91v1.91h-2.81c.03-.64.09-1.27.16-1.91zm-18.2 1.91h-2.8v-1.91h2.64c.07.63.13 1.27.16 1.91zm19.16-5.75v1.92h-3.31c.12-.64.26-1.28.43-1.92zm-19.6 1.92h-3.31v-1.92h2.93c.15.63.28 1.27.39 1.92zm22.46-18.2c0 2.56-.69 5.08-1.98 7.28a34.68 34.68 0 0 0-3.77 9h-17.1a28.05 28.05 0 0 0-3.55-8.58 14.39 14.39 0 0 1 10.44-21.99c4.14-.45 8.11.8 11.19 3.57a14.4 14.4 0 0 1 4.77 10.72zm-21.56.47l3.33-3.34-1.35-1.36-4.68 4.7 4.68 4.71 1.35-1.36zm10.43-6.07l-1.8-.66-4.63 12.81 1.8.65zm6.75 6.07l-4.68-4.7-1.35 1.36 3.33 3.34-3.33 3.35 1.35 1.36z"/></defs><g><g transform="translate(-939 -2123)"><use fill="#fff" xlink:href="#peuma"/></g></g></svg>