<svg xmlns="http://www.w3.org/2000/svg" xmlns:xlink="http://www.w3.org/1999/xlink" width="190" height="190" viewBox="0 0 190 190"><defs><path id="x1cia" d="M960 1726a95 95 0 0 1 95 95 95 95 0 0 1-95 95 95 95 0 0 1-95-95 95 95 0 0 1 95-95zm-5.83 72.89h-9.34v26.18a8.74 8.74 0 0 1-17.5 0v-26.18H918v26.18c0 9.96 8.1 18.03 18.08 18.03 9.99 0 18.09-8.07 18.09-18.03zm25.66 0h-22.16v9.31h22.16c7.12 0 12.9 5.7 12.9 12.8 0 7.1-5.78 12.8-12.9 12.8h-22.16v9.3h22.16A22.13 22.13 0 0 0 1002 1821a22.14 22.14 0 0 0-22.17-22.11z"/></defs><g><g transform="translate(-865 -1726)"><use fill="#1b6fec" xlink:href="#x1cia"/></g></g></svg>