<svg xmlns="http://www.w3.org/2000/svg" xmlns:xlink="http://www.w3.org/1999/xlink" width="150" height="18" viewBox="0 0 150 18"><defs><path id="q1mva" d="M515.78 99h-7.9v-5.14h7.9a3.9 3.9 0 0 0 3.95-3.86 3.9 3.9 0 0 0-3.95-3.86h-7.9V81h7.9a9.12 9.12 0 0 1 9.22 9c0 4.96-4.13 9-9.22 9zm-22.65-9.9V99h-5.27V81h4.77l7.61 9.51V81h5v18h-4.46zM476.01 99a9.11 9.11 0 0 1-9.22-9c0-4.97 4.13-9 9.22-9 5.1 0 9.22 4.03 9.22 9s-4.13 9-9.22 9zm0-13.76c-2.18 0-4.4 1.77-4.35 4.76.06 2.86 2.17 4.76 4.35 4.76 2.18 0 4.33-2.01 4.35-4.76 0-2.76-2.17-4.76-4.35-4.76zm-17.12 3.47l-4.6 7.1h-.1l-4.65-7.1V99h-5.27V81h5.66l4.35 7.07 4.48-7.07h5.4v18h-5.27zm-23.97 7.07h-7.11L426.36 99h-5.27l7.9-18h4.87l7.78 18h-5.4zm-3.56-8.87l-1.97 5.15h3.95zM413.2 81h5.27v18h-5.27zm-11.85 18h-7.9v-5.14h7.9a3.91 3.91 0 0 0 3.95-3.86 3.91 3.91 0 0 0-3.95-3.86h-7.9V81h7.9a9.12 9.12 0 0 1 9.22 9c0 4.96-4.14 9-9.22 9zm-18.44 0a7.82 7.82 0 0 1-7.9-7.72V81h5.27v10.28a2.6 2.6 0 0 0 2.63 2.58 2.6 2.6 0 0 0 2.64-2.58V81h5.26v10.28a7.82 7.82 0 0 1-7.9 7.72z"/></defs><g><g transform="translate(-375 -81)"><use fill="#fff" xlink:href="#q1mva"/></g></g></svg>