<svg xmlns="http://www.w3.org/2000/svg" xmlns:xlink="http://www.w3.org/1999/xlink" width="55" height="57" viewBox="0 0 55 57"><defs><path id="zc1wa" d="M1213.63 5671.7v-4.75a8.12 8.12 0 0 1 5.75-7.77 4.4 4.4 0 1 1 4.83 0 8.12 8.12 0 0 1 5.75 7.77v4.75zm11.35-16.18a3.2 3.2 0 0 0-6.37 0 3.19 3.19 0 0 0 6.37 0zm3.78 11.43c0-3.81-3.1-6.91-6.9-6.91h-.13c-3.8 0-6.9 3.1-6.9 6.91v3.54h2.58v-6.39c0-.33.27-.61.6-.61.33 0 .6.28.6.61v6.39h6.37v-6.39c0-.33.27-.61.6-.61.33 0 .6.28.6.61v6.39h2.58zm-7.12-22.51c0-.96-.77-1.73-1.72-1.73h-16.86v5.23h-1.21v-5.23h-16.86c-.95 0-1.72.77-1.72 1.73v3.5h-1.21v-3.5a2.94 2.94 0 0 1 2.93-2.94h16.86v-3.48h1.21v3.48h16.86a2.94 2.94 0 0 1 2.93 2.94v3.5h-1.21zm-27.36-12.9a8.14 8.14 0 0 1 5.76-7.77 4.4 4.4 0 0 1 2.41-8.06 4.4 4.4 0 0 1 2.42 8.06 8.13 8.13 0 0 1 5.75 7.77v4.75h-16.34zm11.36-11.43a3.2 3.2 0 1 0-6.38 0 3.2 3.2 0 0 0 6.38 0zm-10.15 14.97h2.58v-6.39c0-.33.27-.6.6-.6.33 0 .6.27.6.6v6.39h6.37v-6.39c0-.33.27-.6.6-.6.33 0 .6.27.6.6v6.39h2.58v-3.54c0-3.81-3.1-6.91-6.9-6.91h-.13c-3.8 0-6.9 3.1-6.9 6.91zm-7.96 20.44c0 1.53-.78 2.87-1.97 3.66a8.13 8.13 0 0 1 5.76 7.77v4.75h-16.34v-4.75a8.13 8.13 0 0 1 5.75-7.77 4.4 4.4 0 0 1 2.42-8.06 4.4 4.4 0 0 1 4.38 4.4zm-11.35 11.43v3.54h2.58v-6.39c0-.33.27-.61.6-.61.34 0 .61.28.61.61v6.39h6.36v-6.39c0-.33.27-.61.6-.61.33 0 .6.28.6.61v6.39h2.58v-3.54c0-3.81-3.1-6.91-6.9-6.91h-.13c-3.8 0-6.9 3.1-6.9 6.91zm3.79-11.43a3.18 3.18 0 1 0 6.36 0 3.18 3.18 0 0 0-6.36 0zm19.97 3.66a4.39 4.39 0 1 1 4.83 0 8.13 8.13 0 0 1 5.75 7.77v4.75h-16.34v-4.75a8.13 8.13 0 0 1 5.76-7.77zm5.59-3.66a3.18 3.18 0 1 0-6.37-.01 3.18 3.18 0 0 0 6.37.01zm-10.14 14.97h2.58v-6.39c0-.33.27-.61.6-.61.33 0 .6.28.6.61v6.39h6.36v-6.39c0-.33.27-.61.61-.61.33 0 .6.28.6.61v6.39h2.58v-3.54c0-3.81-3.1-6.91-6.9-6.91h-.13c-3.8 0-6.9 3.1-6.9 6.91z"/></defs><g><g transform="translate(-1175 -5615)"><use fill="#1b6fec" xlink:href="#zc1wa"/></g></g></svg>