<svg xmlns="http://www.w3.org/2000/svg" xmlns:xlink="http://www.w3.org/1999/xlink" width="270" height="210" viewBox="0 0 270 210"><defs><path id="g3g6a" d="M375 3527.48c18.9-2.27 33.31-7.84 43.24-16.72 9.93-8.88 14.9-20.69 14.9-35.42v-2.27h-45.1V3360h115.43v92.1c0 40.99-10.31 70.61-30.92 88.84-20.6 18.23-50.2 27.91-88.77 29.05zm141.54 0c18.9-2.27 33.32-7.84 43.25-16.72 9.92-8.88 14.89-20.69 14.89-35.42v-2.27h-45.1V3360h115.43v92.1c0 40.99-10.3 70.61-30.91 88.84-20.61 18.23-50.2 27.91-88.77 29.05z"/></defs><g><g transform="translate(-375 -3360)"><use fill="#fafcff" xlink:href="#g3g6a"/></g></g></svg>