<svg xmlns="http://www.w3.org/2000/svg" xmlns:xlink="http://www.w3.org/1999/xlink" width="55" height="59" viewBox="0 0 55 59"><defs><path id="b6d9a" d="M825.4 5621.35l4.59 1.19-9.2 8.94-4.53-1.01h-.01l-.45.46v-.01l-.52.52a23.04 23.04 0 0 1-2.77 33.88l3.16 8.52h-7.32l-1.58-5.22a23.02 23.02 0 0 1-16.54.21l-1.52 5.01h-7.33l3.03-8.15a23.14 23.14 0 0 1-9.41-18.6 23.22 23.22 0 0 1 39.46-16.53l.99-.99-1.19-4.57 9.17-9.15 1.06 4.69 1.04-1.03a.61.61 0 0 1 .85 0c.23.24.23.62 0 .86zm-4.98 8.81l7.19-6.99-3.2-.83-7.13 7.12zm-11.18 42.47h4.7l-2.26-6.1-3.71 1.9zm-26.12 0h4.7l1.27-4.2-1.02-.52c-.4-.2-.8-.39-1.2-.61l-1.5-.77zm31.31-40.34l-3.19 3.18a17.13 17.13 0 0 1 4.55 11.62 17.27 17.27 0 0 1-34.53 0 17.27 17.27 0 0 1 29.14-12.48l3.2-3.2a22.02 22.02 0 0 0-37.4 15.68c0 8.21 4.54 15.37 11.23 19.14l1.25.64a21.94 21.94 0 0 0 9.53 2.2 22.02 22.02 0 0 0 22.02-21.98c0-5.7-2.21-10.89-5.8-14.8zm-15.9 20.46a5.67 5.67 0 0 1 0-11.31c1.4 0 2.66.53 3.65 1.37l3.58-3.57a10.7 10.7 0 0 0-17.94 7.85 10.71 10.71 0 0 0 21.42 0c0-2.67-1-5.11-2.63-6.99l-3.6 3.59a5.58 5.58 0 0 1 1.18 3.4 5.67 5.67 0 0 1-5.66 5.66zm-.43-5.86l3.23-3.23a4.45 4.45 0 1 0-2.8 7.88 4.45 4.45 0 0 0 3.63-7l-3.2 3.2a.6.6 0 0 1-.86 0 .6.6 0 0 1 0-.85zm12.34.2a11.91 11.91 0 0 1-23.82 0c0-6.55 5.34-11.89 11.9-11.89 3.13 0 5.97 1.22 8.1 3.19l2.93-2.93a16.06 16.06 0 0 0-27.08 11.63 16.06 16.06 0 0 0 32.12 0c0-4.14-1.6-7.92-4.2-10.77l-2.93 2.93a11.83 11.83 0 0 1 2.98 7.84zm12.3-28.85l-7.14 7.12.83 3.2 7.02-7.18z"/></defs><g><g transform="translate(-775 -5615)"><use fill="#1b6fec" xlink:href="#b6d9a"/></g></g></svg>