<svg xmlns="http://www.w3.org/2000/svg" xmlns:xlink="http://www.w3.org/1999/xlink" width="16" height="16" viewBox="0 0 16 16"><defs><path id="cnzla" d="M691 6778.51a4.49 4.49 0 0 1-6.84 3.82 7.42 7.42 0 0 1-8.49-8.49 4.49 4.49 0 0 1 6.17-6.17 7.42 7.42 0 0 1 8.5 8.49c.41.68.66 1.49.66 2.35zm-4-1.66a2.24 2.24 0 0 0-1.03-2.01 4.97 4.97 0 0 0-1.18-.54c-.46-.15-.97-.28-1.53-.41-.45-.1-.77-.18-.96-.24a2.6 2.6 0 0 1-.57-.22c-.2-.1-.34-.21-.44-.34a.71.71 0 0 1-.16-.46c0-.28.15-.53.47-.74.3-.2.72-.31 1.24-.31.56 0 .96.1 1.2.29.25.19.47.46.65.8.14.25.27.43.4.54.12.12.3.17.55.17.26 0 .48-.09.66-.28a.87.87 0 0 0 .26-.62c0-.25-.07-.51-.2-.77a2.51 2.51 0 0 0-.66-.75c-.3-.23-.68-.42-1.13-.56a5.07 5.07 0 0 0-1.6-.22c-.76 0-1.43.11-2 .32a2.9 2.9 0 0 0-1.32.93c-.3.4-.46.86-.46 1.37 0 .54.15 1 .44 1.37.28.36.67.65 1.16.86.49.21 1.09.39 1.8.55.54.11.97.22 1.28.32.32.1.58.24.77.43.2.18.3.42.3.72 0 .38-.18.69-.55.94-.37.25-.85.38-1.44.38-.43 0-.78-.06-1.04-.19a1.57 1.57 0 0 1-.61-.47c-.15-.2-.28-.44-.4-.74-.11-.25-.24-.44-.4-.57a.85.85 0 0 0-.56-.2c-.27 0-.5.09-.67.25a.83.83 0 0 0-.27.61c0 .4.15.81.44 1.23.28.42.65.75 1.11 1 .65.35 1.47.53 2.45.53.83 0 1.54-.13 2.15-.39.6-.25 1.06-.6 1.37-1.05.32-.46.48-.97.48-1.53z"/></defs><g><g transform="translate(-675 -6767)"><use fill="#4c5672" xlink:href="#cnzla"/></g></g></svg>