<svg xmlns="http://www.w3.org/2000/svg" xmlns:xlink="http://www.w3.org/1999/xlink" width="16" height="14" viewBox="0 0 16 14"><defs><path id="qs2ia" d="M721.28 6773.9l15.13-5.87c.32-.13.65.16.58.5l-2.72 13.12a.44.44 0 0 1-.68.27l-3.7-2.71a.63.63 0 0 0-.75.02l-2.05 1.69a.44.44 0 0 1-.7-.21l-1.42-4.61-3.69-1.39c-.37-.14-.37-.67 0-.81zm4.57 2.28l.78 2.75c.05.2.34.18.36-.03l.2-1.5c.04-.29.18-.55.39-.75l5.94-5.55c.11-.1-.02-.28-.15-.2l-7.2 4.46a.73.73 0 0 0-.32.82z"/></defs><g><g transform="translate(-721 -6768)"><use fill="#4c5672" xlink:href="#qs2ia"/></g></g></svg>