<svg xmlns="http://www.w3.org/2000/svg" xmlns:xlink="http://www.w3.org/1999/xlink" width="16" height="16" viewBox="0 0 16 16"><defs><path id="3wooa" d="M641.84 6773.75v.16c0 .23.02.72-.52.8l-.16.01c-.58 0-.61-.53-.63-.78l-.01-.18c-.37-2.13-1.1-2.88-3.3-3.36a1.04 1.04 0 0 0-.19-.02c-.23-.04-.53-.08-.7-.3a.6.6 0 0 1-.09-.49c.04-.21.17-.55.67-.55.13 0 .25.02.37.04l.16.02c2.45.29 4.42 2.36 4.4 4.61v.04zm-5.87-6.1c.02-.24.13-.65.72-.65l.2.01h.21c3.72.12 6.94 3.41 6.89 7.03v.16c.02.24.03.54-.17.74a.65.65 0 0 1-.47.17h-.02c-.63-.01-.64-.58-.65-.86v-.21c-.47-3.54-2.13-5.21-5.73-5.75l-.18-.01c-.27-.02-.83-.06-.8-.63zm7.44 13.02c-.46 1.24-1.93 2.33-3.15 2.33h-.02l-.07-.01-.15-.03c-.18-.04-.42-.1-.66-.2a21.4 21.4 0 0 1-6.67-4.31 19.48 19.48 0 0 1-4.4-6.53 2.93 2.93 0 0 1-.05-2.42 3.24 3.24 0 0 1 2.01-1.61c.4-.13.77-.12 1.12 0 .85.31 2.85 2.97 2.9 3.85.05.78-.57 1.19-.9 1.4-.58.39-.69.86-.36 1.59a6.75 6.75 0 0 0 3.56 3.37c.2.09.4.14.56.14.28 0 .51-.14.7-.42.43-.63.95-.95 1.54-.95.44 0 .91.17 1.43.53l.25.17c.4.28.83.56 1.22.87l.23.17c.58.43 1.3.97.9 2.06zm-4.43-8.75c.5.5.8 1.13.8 1.68.02.53-.18.82-.59.87h-.08c-.34 0-.6-.26-.64-.64-.08-.83-.5-1.27-1.33-1.4-.22-.03-.47-.1-.6-.31-.1-.14-.1-.32-.03-.52.15-.43.6-.44.8-.45.56-.01 1.17.27 1.67.77z"/></defs><g><g transform="translate(-628 -6767)"><use fill="#4c5672" xlink:href="#3wooa"/></g></g></svg>