<svg xmlns="http://www.w3.org/2000/svg" xmlns:xlink="http://www.w3.org/1999/xlink" width="16" height="9" viewBox="0 0 16 9"><defs><path id="4sa6a" d="M549.91 6779.13l-.05-.1c-.28-.5-.8-1.1-1.6-1.82v-.02h-.02v-.01h-.01a9.19 9.19 0 0 1-.68-.68c-.17-.21-.2-.44-.11-.66.06-.17.31-.53.75-1.08l.54-.7c.96-1.26 1.37-2.06 1.25-2.41l-.05-.08c-.04-.05-.12-.1-.26-.14a1.3 1.3 0 0 0-.53-.02l-2.4.02c-.04-.02-.1-.02-.17 0l-.1.03-.05.02-.03.02a.54.54 0 0 0-.18.23 13.54 13.54 0 0 1-1.46 2.73 3.68 3.68 0 0 1-.74.84c-.1.07-.17.1-.22.09a.64.64 0 0 1-.14-.04.51.51 0 0 1-.2-.2.86.86 0 0 1-.09-.32 3.84 3.84 0 0 1-.02-.72 12.17 12.17 0 0 0 .02-1.03l.02-.58a10.62 10.62 0 0 0-.02-.82 1.41 1.41 0 0 0-.09-.27.42.42 0 0 0-.17-.19.73.73 0 0 0-.28-.11c-.3-.07-.67-.11-1.12-.11a5.36 5.36 0 0 0-2 .2c-.11.06-.21.14-.31.24-.1.12-.11.19-.04.2.33.05.57.17.7.35l.06.1a3.72 3.72 0 0 1 .2.98 6.29 6.29 0 0 1-.2 2.08l-.1.18-.04.04a.57.57 0 0 1-.23.04.58.58 0 0 1-.28-.11 2.42 2.42 0 0 1-.35-.32 4 4 0 0 1-.4-.56c-.15-.24-.3-.53-.47-.86l-.13-.24a17.84 17.84 0 0 1-.73-1.52.56.56 0 0 0-.2-.26l-.04-.02a.47.47 0 0 0-.13-.07.65.65 0 0 0-.2-.06l-2.28.02c-.23 0-.39.05-.47.16l-.03.05c-.02.02-.03.07-.03.13s.02.13.05.22a25.87 25.87 0 0 0 3.59 5.96l.23.24.2.2a9.2 9.2 0 0 0 1.44 1.01 4.51 4.51 0 0 0 2.32.57h.96c.2-.01.34-.07.44-.18l.03-.04a.47.47 0 0 0 .07-.15.84.84 0 0 0 .02-.23 2.6 2.6 0 0 1 .2-1.06 1.03 1.03 0 0 1 .32-.36.42.42 0 0 0 .07-.03c.13-.04.29 0 .47.13s.35.29.5.47c.16.19.35.41.58.64.22.24.41.41.58.53l.17.1c.1.06.25.12.43.18.18.05.33.07.47.04l2.13-.03c.21 0 .37-.04.49-.11s.19-.14.2-.22a.64.64 0 0 0 .01-.28.91.91 0 0 0-.06-.22z"/></defs><g><g transform="translate(-534 -6771)"><use fill="#4c5672" xlink:href="#4sa6a"/></g></g></svg>