<svg xmlns="http://www.w3.org/2000/svg" xmlns:xlink="http://www.w3.org/1999/xlink" width="15" height="9" viewBox="0 0 15 9"><defs><path id="35bga" d="M30.34 893.88h.9s.27-.03.4-.19c.13-.14.13-.41.13-.41s-.02-1.25.54-1.44c.55-.18 1.26 1.21 2 1.75.57.4 1 .32 1 .32l2-.03s1.05-.07.56-.93c-.04-.07-.3-.63-1.5-1.8-1.25-1.2-1.08-1.01.43-3.11.92-1.28 1.3-2.06 1.18-2.4-.11-.32-.8-.23-.8-.23l-2.25.01s-.16-.02-.29.06c-.12.07-.2.25-.2.25s-.35.99-.83 1.83c-1 1.78-1.4 1.87-1.57 1.76-.38-.26-.29-1.03-.29-1.58 0-1.73.25-2.44-.48-2.63-.25-.06-.43-.1-1.06-.1-.8-.02-1.48 0-1.87.2-.26.12-.45.41-.33.43.15.02.48.1.66.35.23.33.23 1.06.23 1.06s.13 2.03-.31 2.28c-.3.17-.72-.18-1.62-1.8-.46-.82-.8-1.73-.8-1.73s-.07-.17-.2-.26c-.14-.11-.34-.15-.34-.15l-2.14.02s-.32 0-.44.15c-.1.13 0 .4 0 .4s1.67 4.1 3.57 6.15c1.74 1.9 3.72 1.77 3.72 1.77z"/></defs><g><g transform="translate(-23 -885)"><use fill="#b1b7cf" xlink:href="#35bga"/></g></g></svg>