<?xml version="1.0" encoding="UTF-8" standalone="no"?>
<svg width="842px" height="811px" viewBox="0 0 842 811" version="1.1" xmlns="http://www.w3.org/2000/svg" xmlns:xlink="http://www.w3.org/1999/xlink">
    <!-- Generator: Sketch 41 (35326) - http://www.bohemiancoding.com/sketch -->
    <title>circe-lg</title>
    <desc>Created with Sketch.</desc>
    <defs></defs>
    <g id="Page-1" stroke="none" stroke-width="1" fill="none" fill-rule="evenodd">
        <path d="M305.989,809.12 C248.525285,792.762977 195.223828,764.306712 149.66,725.66 M9.146,487.79 C3.71464587,460.548619 0.986078594,432.83755 1,405.06 C1,395.71 1.30266667,386.43 1.908,377.22 M120.408,111.72 C171.477277,59.3218788 235.354858,21.1814821 305.708,1.08 M536.047,1.01 C606.660537,21.1445015 670.759246,59.4451184 721.947,112.09 M840.057,376.8 C840.677,386.14 840.990333,395.56 840.997,405.06 C841.00947,432.517304 838.343513,459.910352 833.037,486.85 M694.227,724.04 C648.252266,763.507597 594.264758,792.534753 535.987,809.12" id="circe-lg" stroke="#F3F8FF" stroke-width="2"></path>
    </g>
</svg>