<?xml version="1.0" encoding="UTF-8" standalone="no"?>
<svg width="15px" height="9px" viewBox="0 0 15 9" version="1.1" xmlns="http://www.w3.org/2000/svg" xmlns:xlink="http://www.w3.org/1999/xlink">
    <!-- Generator: Sketch 41 (35326) - http://www.bohemiancoding.com/sketch -->
    <title>vk</title>
    <desc>Created with Sketch.</desc>
    <defs></defs>
    <g id="Page-1" stroke="none" stroke-width="1" fill="none" fill-rule="evenodd">
        <g id="vk" fill="#B1B7CF">
            <g id="Group">
                <g id="35bga-link">
                    <path d="M7.34,8.88 L8.24,8.88 C8.24,8.88 8.51,8.85 8.64,8.69 C8.77,8.55 8.77,8.28 8.77,8.28 C8.77,8.28 8.75,7.03 9.31,6.84 C9.86,6.66 10.57,8.05 11.31,8.59 C11.88,8.99 12.31,8.91 12.31,8.91 L14.31,8.88 C14.31,8.88 15.36,8.81 14.87,7.95 C14.83,7.88 14.57,7.32 13.37,6.15 C12.12,4.95 12.29,5.14 13.8,3.04 C14.72,1.76 15.1,0.98 14.98,0.64 C14.87,0.32 14.18,0.41 14.18,0.41 L11.93,0.42 C11.93,0.42 11.77,0.4 11.64,0.48 C11.52,0.55 11.44,0.73 11.44,0.73 C11.44,0.73 11.09,1.72 10.61,2.56 C9.61,4.34 9.21,4.43 9.04,4.32 C8.66,4.06 8.75,3.29 8.75,2.74 C8.75,1.01 9,0.3 8.27,0.11 C8.02,0.05 7.84,0.01 7.21,0.01 C6.41,-0.01 5.73,0.01 5.34,0.21 C5.08,0.33 4.89,0.62 5.01,0.64 C5.16,0.66 5.49,0.74 5.67,0.99 C5.9,1.32 5.9,2.05 5.9,2.05 C5.9,2.05 6.03,4.08 5.59,4.33 C5.29,4.5 4.87,4.15 3.97,2.53 C3.51,1.71 3.17,0.8 3.17,0.8 C3.17,0.8 3.1,0.63 2.97,0.54 C2.83,0.43 2.63,0.39 2.63,0.39 L0.49,0.41 C0.49,0.41 0.17,0.41 0.05,0.56 C-0.05,0.69 0.05,0.96 0.05,0.96 C0.05,0.96 1.72,5.06 3.62,7.11 C5.36,9.01 7.34,8.88 7.34,8.88 L7.34,8.88 Z" id="35bga"></path>
                </g>
            </g>
        </g>
    </g>
</svg>