<svg xmlns="http://www.w3.org/2000/svg" xmlns:xlink="http://www.w3.org/1999/xlink" width="336" height="386" viewBox="0 0 336 386"><defs><path id="kp49a" d="M801.44 1729.49a5 5 0 1 1-8.66-5 5 5 0 0 1 8.66 5z"/><path id="kp49b" d="M801.52 1912.5a5 5 0 1 1-8.66 5 5 5 0 0 1 8.66-5z"/><path id="kp49c" d="M960 2004a5 5 0 1 1 0 10 5 5 0 0 1 0-10z"/><path id="kp49d" d="M1118.52 1912.55a5 5 0 1 1 8.66 5 5 5 0 0 1-8.66-5z"/><path id="kp49e" d="M1118.49 1729.5a5 5 0 1 1 8.66-5 5 5 0 0 1-8.66 5z"/><path id="kp49f" d="M960 1638a5 5 0 1 1 0-10 5 5 0 0 1 0 10z"/></defs><g><g transform="translate(-792 -1628)"><use fill="#d3deeb" xlink:href="#kp49a"/></g><g transform="translate(-792 -1628)"><use fill="#d3deeb" xlink:href="#kp49b"/></g><g transform="translate(-792 -1628)"><use fill="#d3deeb" xlink:href="#kp49c"/></g><g transform="translate(-792 -1628)"><use fill="#d3deeb" xlink:href="#kp49d"/></g><g transform="translate(-792 -1628)"><use fill="#d3deeb" xlink:href="#kp49e"/></g><g transform="translate(-792 -1628)"><use fill="#d3deeb" xlink:href="#kp49f"/></g></g></svg>