<svg xmlns="http://www.w3.org/2000/svg" xmlns:xlink="http://www.w3.org/1999/xlink" width="278" height="318" viewBox="0 0 278 318"><defs><path id="bsqka" d="M822.24 1741.49a4 4 0 1 1 6.92 4 4 4 0 0 1-6.92-4z"/><path id="bsqkb" d="M822.3 1900.5a4 4 0 1 1 6.94-4 4 4 0 0 1-6.93 4z"/><path id="bsqkc" d="M960 1980a4 4 0 1 1 0-8 4 4 0 0 1 0 8z"/><path id="bsqkd" d="M1097.73 1900.55a4 4 0 1 1-6.93-4.02 4 4 0 0 1 6.93 4.02z"/><path id="bsqke" d="M1097.7 1741.5a4 4 0 1 1-6.9 4 4 4 0 0 1 6.9-4z"/><path id="bsqkf" d="M960 1662a4 4 0 1 1 0 8 4 4 0 0 1 0-8z"/></defs><g><g transform="translate(-821 -1662)"><use fill="#d3deeb" xlink:href="#bsqka"/></g><g transform="translate(-821 -1662)"><use fill="#d3deeb" xlink:href="#bsqkb"/></g><g transform="translate(-821 -1662)"><use fill="#d3deeb" xlink:href="#bsqkc"/></g><g transform="translate(-821 -1662)"><use fill="#d3deeb" xlink:href="#bsqkd"/></g><g transform="translate(-821 -1662)"><use fill="#d3deeb" xlink:href="#bsqke"/></g><g transform="translate(-821 -1662)"><use fill="#d3deeb" xlink:href="#bsqkf"/></g></g></svg>