<svg id="Слой_3" data-name="Слой 3" xmlns="http://www.w3.org/2000/svg" viewBox="0 0 55 67.14" style=""><defs><style>.cls-1,.cls-2{fill:none;stroke:#1b6fec;stroke-miterlimit:10;}.cls-1{stroke-width:1.2px;}.cls-2{stroke-width:1.55px;}</style></defs><title>copyrigter</title><path class="cls-1 kzFLEOLP_0" d="M33.33,63.84a1.34,1.34,0,0,1-.95.39H2.15A1.34,1.34,0,0,1,.8,62.88V5.33A1.35,1.35,0,0,1,2.15,4h41.3A1.36,1.36,0,0,1,44.8,5.33v46.6a1.35,1.35,0,0,1-.4,1Z"></path><path class="cls-1 kzFLEOLP_1" d="M32.94,64.23V53.84a1.35,1.35,0,0,1,1.35-1.35H44.8"></path><path class="cls-1 kzFLEOLP_2" width="2.71" height="35.88" d="M51.39 18.39 L54.1 18.39 L54.1 54.27 L51.39 54.27 Z"></path><path class="cls-1 kzFLEOLP_3" d="M51.39,35.3L54.1,35.3"></path><path class="cls-1 kzFLEOLP_4" d="M48.67,33.11L48.67,20.69L51.24,18.18"></path><path class="cls-1 kzFLEOLP_5" d="M53.43,15.57H52.06a.69.69,0,0,0-.67.68v2.24H54.1V16.25A.69.69,0,0,0,53.43,15.57Z"></path><path class="cls-1 kzFLEOLP_6" d="M52.74,62.4h0c-.75,0-1.35-5.35-1.35-6.1v-2H54.1v2C54.1,57.05,53.49,62.4,52.74,62.4Z"></path><path class="cls-2 kzFLEOLP_7" d="M52.74,54.27L52.74,62.35"></path><path class="cls-1 kzFLEOLP_8" d="M5.87,11.21L26.18,11.21"></path><path class="cls-1 kzFLEOLP_9" d="M5.87,15.95L39.05,15.95"></path><path class="cls-1 kzFLEOLP_10" d="M5.87,19.68L36.34,19.68"></path><path class="cls-1 kzFLEOLP_11" d="M5.54,25.09L38.71,25.09"></path><path class="cls-1 kzFLEOLP_12" d="M5.54,28.81L38.71,28.81"></path><path class="cls-1 kzFLEOLP_13" d="M5.54,32.54L38.71,32.54"></path><path class="cls-1 kzFLEOLP_14" d="M5.54,36.26L38.71,36.26"></path><path class="cls-1 kzFLEOLP_15" d="M5.54,41L38.03,41"></path><path class="cls-1 kzFLEOLP_16" d="M5.54,44.72L38.03,44.72"></path><path class="cls-1 kzFLEOLP_17" d="M5.54,48.45L33.97,48.45"></path><path class="cls-1 kzFLEOLP_18" d="M5.54,55.22L15.01,55.22"></path><style>.kzFLEOLP_0{stroke-dasharray:200 202;stroke-dashoffset:201;animation:kzFLEOLP_draw 800ms ease-in-out 0ms forwards;}.kzFLEOLP_1{stroke-dasharray:24 26;stroke-dashoffset:25;animation:kzFLEOLP_draw 800ms ease-in-out 0ms forwards;}.kzFLEOLP_2{stroke-dasharray:78 80;stroke-dashoffset:79;animation:kzFLEOLP_draw 800ms ease-in-out 0ms forwards;}.kzFLEOLP_3{stroke-dasharray:3 5;stroke-dashoffset:4;animation:kzFLEOLP_draw 800ms ease-in-out 0ms forwards;}.kzFLEOLP_4{stroke-dasharray:17 19;stroke-dashoffset:18;animation:kzFLEOLP_draw 800ms ease-in-out 0ms forwards;}.kzFLEOLP_5{stroke-dasharray:11 13;stroke-dashoffset:12;animation:kzFLEOLP_draw 800ms ease-in-out 0ms forwards;}.kzFLEOLP_6{stroke-dasharray:20 22;stroke-dashoffset:21;animation:kzFLEOLP_draw 800ms ease-in-out 0ms forwards;}.kzFLEOLP_7{stroke-dasharray:9 11;stroke-dashoffset:10;animation:kzFLEOLP_draw 800ms ease-in-out 0ms forwards;}.kzFLEOLP_8{stroke-dasharray:21 23;stroke-dashoffset:22;animation:kzFLEOLP_draw 800ms ease-in-out 0ms forwards;}.kzFLEOLP_9{stroke-dasharray:34 36;stroke-dashoffset:35;animation:kzFLEOLP_draw 800ms ease-in-out 0ms forwards;}.kzFLEOLP_10{stroke-dasharray:31 33;stroke-dashoffset:32;animation:kzFLEOLP_draw 800ms ease-in-out 0ms forwards;}.kzFLEOLP_11{stroke-dasharray:34 36;stroke-dashoffset:35;animation:kzFLEOLP_draw 800ms ease-in-out 0ms forwards;}.kzFLEOLP_12{stroke-dasharray:34 36;stroke-dashoffset:35;animation:kzFLEOLP_draw 800ms ease-in-out 0ms forwards;}.kzFLEOLP_13{stroke-dasharray:34 36;stroke-dashoffset:35;animation:kzFLEOLP_draw 800ms ease-in-out 0ms forwards;}.kzFLEOLP_14{stroke-dasharray:34 36;stroke-dashoffset:35;animation:kzFLEOLP_draw 800ms ease-in-out 0ms forwards;}.kzFLEOLP_15{stroke-dasharray:33 35;stroke-dashoffset:34;animation:kzFLEOLP_draw 800ms ease-in-out 0ms forwards;}.kzFLEOLP_16{stroke-dasharray:33 35;stroke-dashoffset:34;animation:kzFLEOLP_draw 800ms ease-in-out 0ms forwards;}.kzFLEOLP_17{stroke-dasharray:29 31;stroke-dashoffset:30;animation:kzFLEOLP_draw 800ms ease-in-out 0ms forwards;}.kzFLEOLP_18{stroke-dasharray:10 12;stroke-dashoffset:11;animation:kzFLEOLP_draw 800ms ease-in-out 0ms forwards;}@keyframes kzFLEOLP_draw{100%{stroke-dashoffset:0;}}@keyframes kzFLEOLP_fade{0%{stroke-opacity:1;}92%{stroke-opacity:1;}100%{stroke-opacity:0;}}</style></svg>