<svg id="Слой_3" data-name="Слой 3" xmlns="http://www.w3.org/2000/svg" viewBox="0 0 55 55.51" style=""><defs><style>.cls-1,.cls-2{fill:none;stroke:#1b6fec;stroke-miterlimit:10;stroke-width:1.2px;}.cls-2{stroke-linecap:round;}</style></defs><title>front-end</title><path class="cls-1 zzWjNAYN_0" d="M10.55,35.33A8.07,8.07 0,1,1 26.69,35.33A8.07,8.07 0,1,1 10.55,35.33"></path><path class="cls-1 zzWjNAYN_1" d="M16.14,20.34L16.49,17.46L20.93,17.46L21.33,20.34L23.98,21.09L25.71,18.79L29.57,20.98L28.48,23.68L30.38,25.7L33.03,24.55L35.28,28.36L32.98,30.2L33.61,32.85L36.49,33.2L36.49,37.64L33.61,38.04L32.86,40.63L35.17,42.42L32.98,46.23L30.27,45.13L28.31,47.03L29.4,49.74L25.6,51.93L23.81,49.63L21.16,50.32L20.81,53.2L16.37,53.2L15.97,50.32L13.32,49.57L11.59,51.88L7.73,49.69L8.82,46.98L6.92,44.96L4.21,46.11L2.02,42.31L4.32,40.46L3.63,37.81L0.75,37.46L0.75,33.02L3.63,32.62L4.44,30.03L2.08,28.24L4.32,24.43L7.03,25.53L8.99,23.63L7.84,20.92L11.7,18.73L13.49,21.03L16.14,20.34Z"></path><path class="cls-2 zzWjNAYN_2" d="M7.38,35.62A11.57,11.57,0,0,1,18.91,24.09"></path><path class="cls-1 zzWjNAYN_3" d="M37.7,14.63A4.44,4.44 0,1,1 46.58,14.63A4.44,4.44 0,1,1 37.7,14.63"></path><path class="cls-1 zzWjNAYN_4" d="M40.47,4.49L40.7,2.53L43.7,2.53L43.99,4.49L45.77,5.01L46.93,3.39L49.58,4.95L48.83,6.74L50.1,8.06L51.94,7.31L53.44,9.91L51.89,11.12L52.29,12.96L54.25,13.19L54.25,16.19L52.29,16.48L51.77,18.27L53.38,19.42L51.89,22.01L50.04,21.26L48.72,22.59L49.47,24.38L46.87,25.88L45.66,24.32L43.87,24.78L43.64,26.74L40.59,26.74L40.36,24.78L38.57,24.26L37.36,25.82L34.76,24.32L35.51,22.53L34.19,21.15L32.4,21.96L30.9,19.36L32.46,18.15L32,16.31L30.04,16.07L30.04,13.08L32,12.79L32.52,11L30.96,9.85L32.46,7.25L34.3,7.95L35.63,6.68L34.82,4.89L37.47,3.39L38.68,4.95L40.47,4.49Z"></path><path class="cls-1 zzWjNAYN_5" d="M42.67,35.33A2.36,2.36 0,1,1 47.39,35.33A2.36,2.36 0,1,1 42.67,35.33"></path><path class="cls-1 zzWjNAYN_6" d="M43.41,30.78L43.76,29.05L46.29,29.05L46.64,30.78L47.1,30.95L48.6,29.97L50.39,31.76L49.41,33.26L49.58,33.72L51.31,34.06L51.31,36.6L49.58,36.95L49.41,37.41L50.39,38.91L48.6,40.69L47.1,39.71L46.64,39.88L46.29,41.62L43.76,41.62L43.41,39.88L42.95,39.71L41.45,40.69L39.66,38.91L40.64,37.41L40.47,36.95L38.74,36.6L38.74,34.06L40.47,33.72L40.64,33.26L39.66,31.76L41.45,29.97L42.95,30.95L43.41,30.78Z"></path><style>.zzWjNAYN_0{stroke-dasharray:51 53;stroke-dashoffset:52;animation:zzWjNAYN_draw 800ms ease-in-out 0ms forwards;}.zzWjNAYN_1{stroke-dasharray:156 158;stroke-dashoffset:157;animation:zzWjNAYN_draw 800ms ease-in-out 0ms forwards;}.zzWjNAYN_2{stroke-dasharray:19 21;stroke-dashoffset:20;animation:zzWjNAYN_draw 800ms ease-in-out 0ms forwards;}.zzWjNAYN_3{stroke-dasharray:28 30;stroke-dashoffset:29;animation:zzWjNAYN_draw 800ms ease-in-out 0ms forwards;}.zzWjNAYN_4{stroke-dasharray:106 108;stroke-dashoffset:107;animation:zzWjNAYN_draw 800ms ease-in-out 0ms forwards;}.zzWjNAYN_5{stroke-dasharray:15 17;stroke-dashoffset:16;animation:zzWjNAYN_draw 800ms ease-in-out 0ms forwards;}.zzWjNAYN_6{stroke-dasharray:53 55;stroke-dashoffset:54;animation:zzWjNAYN_draw 800ms ease-in-out 0ms forwards;}@keyframes zzWjNAYN_draw{100%{stroke-dashoffset:0;}}@keyframes zzWjNAYN_fade{0%{stroke-opacity:1;}92%{stroke-opacity:1;}100%{stroke-opacity:0;}}</style></svg>