<svg id="Слой_2" data-name="Слой 2" xmlns="http://www.w3.org/2000/svg" viewBox="0 0 55 52.51" style=""><defs><style>.cls-1,.cls-2{fill:none;stroke:#1b6fec;stroke-miterlimit:10;}.cls-1{stroke-width:1.2px;}.cls-2{stroke-width:2px;}</style></defs><title>marketing</title><path class="cls-1 xNNwAupK_0" d="M8.270000000000001,18.59A13.67,13.67 0,1,1 35.61,18.59A13.67,13.67 0,1,1 8.270000000000001,18.59"></path><path class="cls-1 xNNwAupK_1" d="M5.66,18.6A16.29,16.29 0,1,1 38.239999999999995,18.6A16.29,16.29 0,1,1 5.66,18.6"></path><path class="cls-1 xNNwAupK_2" d="M34.21,33.46L32.17,31.42"></path><path class="cls-1 xNNwAupK_3" d="M36.81,30.86L34.77,28.82"></path><path class="cls-1 xNNwAupK_4" width="21.03" height="7.36" transform="translate(40.58 -18.77) rotate(45)" d="M32.43 35.92 L53.46 35.92 L53.46 43.28 L32.43 43.28 Z"></path><path class="cls-1 xNNwAupK_5" d="M35.15,37.01L40.36,31.81"></path><path class="cls-1 xNNwAupK_6" d="M52.52,44a3.68,3.68,0,0,1-5.2,5.2"></path><path class="cls-2 xNNwAupK_7" d="M0.9999999999999998,32.63A1.05,1.05 0,1,1 3.0999999999999996,32.63A1.05,1.05 0,1,1 0.9999999999999998,32.63"></path><path class="cls-1 xNNwAupK_8" d="M2.05,32.63L9.25,37.16"></path><path class="cls-2 xNNwAupK_9" d="M8.2,37.16A1.05,1.05 0,1,1 10.3,37.16A1.05,1.05 0,1,1 8.2,37.16"></path><path class="cls-1 xNNwAupK_10" d="M9.25,37.16L22.58,18.38"></path><path class="cls-2 xNNwAupK_11" d="M21.529999999999998,18.38A1.05,1.05 0,1,1 23.63,18.38A1.05,1.05 0,1,1 21.529999999999998,18.38"></path><path class="cls-1 xNNwAupK_12" d="M43.78,21.1L22.58,18.38"></path><path class="cls-2 xNNwAupK_13" d="M42.730000000000004,21.1A1.05,1.05 0,1,1 44.83,21.1A1.05,1.05 0,1,1 42.730000000000004,21.1"></path><path class="cls-1 xNNwAupK_14" d="M52.95,10.44L43.78,21.1"></path><path class="cls-2 xNNwAupK_15" d="M51.900000000000006,10.44A1.05,1.05 0,1,1 54,10.44A1.05,1.05 0,1,1 51.900000000000006,10.44"></path><style>.xNNwAupK_0{stroke-dasharray:86 88;stroke-dashoffset:87;animation:xNNwAupK_draw 800ms ease-in-out 0ms forwards;}.xNNwAupK_1{stroke-dasharray:103 105;stroke-dashoffset:104;animation:xNNwAupK_draw 800ms ease-in-out 0ms forwards;}.xNNwAupK_2{stroke-dasharray:3 5;stroke-dashoffset:4;animation:xNNwAupK_draw 800ms ease-in-out 0ms forwards;}.xNNwAupK_3{stroke-dasharray:3 5;stroke-dashoffset:4;animation:xNNwAupK_draw 800ms ease-in-out 0ms forwards;}.xNNwAupK_4{stroke-dasharray:57 59;stroke-dashoffset:58;animation:xNNwAupK_draw 800ms ease-in-out 0ms forwards;}.xNNwAupK_5{stroke-dasharray:8 10;stroke-dashoffset:9;animation:xNNwAupK_draw 800ms ease-in-out 0ms forwards;}.xNNwAupK_6{stroke-dasharray:12 14;stroke-dashoffset:13;animation:xNNwAupK_draw 800ms ease-in-out 0ms forwards;}.xNNwAupK_7{stroke-dasharray:7 9;stroke-dashoffset:8;animation:xNNwAupK_draw 800ms ease-in-out 0ms forwards;}.xNNwAupK_8{stroke-dasharray:9 11;stroke-dashoffset:10;animation:xNNwAupK_draw 800ms ease-in-out 0ms forwards;}.xNNwAupK_9{stroke-dasharray:7 9;stroke-dashoffset:8;animation:xNNwAupK_draw 800ms ease-in-out 0ms forwards;}.xNNwAupK_10{stroke-dasharray:24 26;stroke-dashoffset:25;animation:xNNwAupK_draw 800ms ease-in-out 0ms forwards;}.xNNwAupK_11{stroke-dasharray:7 9;stroke-dashoffset:8;animation:xNNwAupK_draw 800ms ease-in-out 0ms forwards;}.xNNwAupK_12{stroke-dasharray:22 24;stroke-dashoffset:23;animation:xNNwAupK_draw 800ms ease-in-out 0ms forwards;}.xNNwAupK_13{stroke-dasharray:7 9;stroke-dashoffset:8;animation:xNNwAupK_draw 800ms ease-in-out 0ms forwards;}.xNNwAupK_14{stroke-dasharray:15 17;stroke-dashoffset:16;animation:xNNwAupK_draw 800ms ease-in-out 0ms forwards;}.xNNwAupK_15{stroke-dasharray:7 9;stroke-dashoffset:8;animation:xNNwAupK_draw 800ms ease-in-out 0ms forwards;}@keyframes xNNwAupK_draw{100%{stroke-dashoffset:0;}}@keyframes xNNwAupK_fade{0%{stroke-opacity:1;}92%{stroke-opacity:1;}100%{stroke-opacity:0;}}</style></svg>