<svg id="Слой_3" data-name="Слой 3" xmlns="http://www.w3.org/2000/svg" viewBox="0 0 55 59.25" style=""><defs><style>.cls-1,.cls-2{fill:none;stroke:#1b6fec;stroke-miterlimit:10;stroke-width:1.2px;}.cls-2{stroke-linecap:round;}</style></defs><title>sem</title><path class="cls-1 tJNQZRaQ_0" d="M0.759999999999998,31.54A22.53,22.45 0,1,1 45.82,31.54A22.53,22.45 0,1,1 0.759999999999998,31.54"></path><path class="cls-1 tJNQZRaQ_1" d="M7,31.54A16.6,16.55 0,1,1 40.2,31.54A16.6,16.55 0,1,1 7,31.54"></path><path class="cls-1 tJNQZRaQ_2" d="M12.340000000000002,31.54A11.26,11.23 0,1,1 34.86,31.54A11.26,11.23 0,1,1 12.340000000000002,31.54"></path><path class="cls-1 tJNQZRaQ_3" d="M18.560000000000002,31.54A5.04,5.02 0,1,1 28.64,31.54A5.04,5.02 0,1,1 18.560000000000002,31.54"></path><path class="cls-1 tJNQZRaQ_4" d="M14.92,52.46L10.17,50.03L7.39,57.54L13.38,57.54L14.92,52.46Z"></path><path class="cls-1 tJNQZRaQ_5" d="M32.29,52.46L37.03,50.03L39.82,57.54L33.83,57.54L32.29,52.46Z"></path><path class="cls-2 tJNQZRaQ_6" d="M23.6,31.76L50.92,4.53"></path><path class="cls-2 tJNQZRaQ_7" d="M48.06,1.65L49.08,6.15L41.13,14.29L39.95,9.74L48.06,1.65Z"></path><path class="cls-2 tJNQZRaQ_8" d="M41.08,14.34L45.6,15.36L53.76,7.42L49.2,6.25L41.08,14.34Z"></path><style>.tJNQZRaQ_0{stroke-dasharray:142 144;stroke-dashoffset:143;animation:tJNQZRaQ_draw 800ms ease-in-out 0ms forwards;}.tJNQZRaQ_1{stroke-dasharray:105 107;stroke-dashoffset:106;animation:tJNQZRaQ_draw 800ms ease-in-out 0ms forwards;}.tJNQZRaQ_2{stroke-dasharray:71 73;stroke-dashoffset:72;animation:tJNQZRaQ_draw 800ms ease-in-out 0ms forwards;}.tJNQZRaQ_3{stroke-dasharray:32 34;stroke-dashoffset:33;animation:tJNQZRaQ_draw 800ms ease-in-out 0ms forwards;}.tJNQZRaQ_4{stroke-dasharray:25 27;stroke-dashoffset:26;animation:tJNQZRaQ_draw 800ms ease-in-out 0ms forwards;}.tJNQZRaQ_5{stroke-dasharray:25 27;stroke-dashoffset:26;animation:tJNQZRaQ_draw 800ms ease-in-out 0ms forwards;}.tJNQZRaQ_6{stroke-dasharray:39 41;stroke-dashoffset:40;animation:tJNQZRaQ_draw 800ms ease-in-out 0ms forwards;}.tJNQZRaQ_7{stroke-dasharray:33 35;stroke-dashoffset:34;animation:tJNQZRaQ_draw 800ms ease-in-out 0ms forwards;}.tJNQZRaQ_8{stroke-dasharray:33 35;stroke-dashoffset:34;animation:tJNQZRaQ_draw 800ms ease-in-out 0ms forwards;}@keyframes tJNQZRaQ_draw{100%{stroke-dashoffset:0;}}@keyframes tJNQZRaQ_fade{0%{stroke-opacity:1;}92%{stroke-opacity:1;}100%{stroke-opacity:0;}}</style></svg>