<?xml version="1.0" standalone="no"?>
<!DOCTYPE svg PUBLIC "-//W3C//DTD SVG 1.1//EN" "http://www.w3.org/Graphics/SVG/1.1/DTD/svg11.dtd" >
<svg xmlns="http://www.w3.org/2000/svg">
<metadata>Generated by IcoMoon</metadata>
<defs>
<font id="icomoon" horiz-adv-x="1024">
<font-face units-per-em="1024" ascent="960" descent="-64" />
<missing-glyph horiz-adv-x="1024" />
<glyph unicode="&#x20;" horiz-adv-x="512" d="" />
<glyph unicode="&#xe901;" glyph-name="arrow" d="M-1.229 310.784l350.515 318.464 140.39 126.976 140.083-126.976 350.618-318.464-140.186-128-350.618 318.464-350.822-318.464z" />
<glyph unicode="&#xe902;" glyph-name="arrow-lg" d="M819.2 468.48v-40.96h-819.2v40.96h819.2zM1024 448l-204.8-102.4v204.8z" />
<glyph unicode="&#xe903;" glyph-name="behance" d="M924.973 685.508h-256.361v66.259h256.663v-66.259zM497.303 413.786c15.65-26.201 24.902-57.791 24.902-91.542 0-1.954-0.031-3.901-0.093-5.841l0.007 0.283c0.019-1.018 0.029-2.219 0.029-3.422 0-37.778-10.539-73.095-28.837-103.17l0.497 0.879c-11.911-20.475-26.949-37.741-44.676-51.754l-0.38-0.29c-20.087-15.941-44.328-27.568-70.815-33.058l-1.106-0.192c-26.2-5.712-56.297-8.984-87.158-8.984-0.996 0-1.992 0.003-2.986 0.010l0.153-0.001h-286.84v662.588h307.802c4.68 0.405 10.125 0.636 15.625 0.636 60.164 0 113.876-27.625 149.144-70.883l0.276-0.349c18.305-27.050 29.221-60.401 29.221-96.302 0-1.7-0.024-3.393-0.073-5.081l0.006 0.248c0.38-3.801 0.597-8.215 0.597-12.68 0-54.089-31.827-100.744-77.775-122.26l-0.827-0.348c30.959-11.033 56.285-31.51 73.144-57.915l0.343-0.574zM146.793 518.054h134.867c1.642-0.078 3.567-0.122 5.502-0.122 22.782 0 44.132 6.128 62.493 16.824l-0.592-0.319c15.962 11.712 26.208 30.4 26.208 51.482 0 2.405-0.133 4.778-0.393 7.113l0.026-0.287c0.26 2.091 0.408 4.511 0.408 6.966 0 23.87-14.011 44.468-34.258 54.018l-0.364 0.154c-20.632 6.625-44.367 10.444-68.994 10.444-2.194 0-4.381-0.030-6.561-0.091l0.321 0.007h-118.483v-146.191zM387.735 326.204c0.185 1.925 0.29 4.163 0.29 6.425 0 28.311-16.496 52.769-40.401 64.287l-0.427 0.185c-17.051 7.163-36.87 11.325-57.661 11.325-2.134 0-4.258-0.044-6.371-0.131l0.303 0.010h-136.493v-176.489h134.686c2.215-0.122 4.807-0.191 7.416-0.191 20.664 0 40.312 4.348 58.079 12.179l-0.923-0.363c25.491 14.827 42.354 42.014 42.354 73.14 0 3.391-0.2 6.735-0.589 10.021l0.038-0.398zM1020.205 433.965c2.637-21.96 4.142-47.391 4.142-73.174 0-7.46-0.126-14.891-0.376-22.291l0.029 1.076h-332.258c-0.136-2.089-0.213-4.528-0.213-6.986 0-38.246 18.761-72.111 47.582-92.893l0.338-0.232c17.676-11.366 39.256-18.119 62.414-18.119 1.183 0 2.361 0.018 3.536 0.053l-0.172-0.004c1.37-0.069 2.976-0.108 4.59-0.108 23.454 0 44.983 8.244 61.847 21.993l-0.178-0.14c10.077 9.003 18.316 19.822 24.246 31.974l0.27 0.613h121.976c-5.693-33.828-21.52-63.245-44.204-85.766l-0.009-0.009c-39.836-42.908-96.551-69.671-159.517-69.671-4.275 0-8.522 0.123-12.736 0.367l0.583-0.027c-0.761-0.009-1.659-0.013-2.558-0.013-60.575 0-115.984 22.116-158.594 58.714l0.324-0.272c-43.618 42.77-70.656 102.312-70.656 168.169 0 7.723 0.372 15.359 1.098 22.891l-0.075-0.958c-0.387 5.349-0.608 11.588-0.608 17.879 0 65.617 24.009 125.627 63.722 171.723l-0.289-0.343c39.28 40.708 94.317 65.987 155.258 65.987 2.828 0 5.642-0.054 8.444-0.162l-0.403 0.012c1.138 0.019 2.482 0.029 3.827 0.029 37.506 0 73.097-8.199 105.078-22.901l-1.566 0.646c32.864-15.826 59.629-39.844 78.332-69.462l0.456-0.773c18.293-27.873 31.134-60.955 36.174-96.547l0.148-1.276zM900.277 421.557c-0.143 29.409-12.314 55.947-31.842 74.971l-0.023 0.022c-17.845 15.993-41.548 25.77-67.534 25.77-1.119 0-2.234-0.018-3.344-0.054l0.162 0.004c-1.64 0.104-3.556 0.163-5.487 0.163-25.693 0-48.94-10.473-65.705-27.383l-0.007-0.007c-17.441-19.749-29.010-45.054-31.761-72.95l-0.043-0.538h205.643z" />
<glyph unicode="&#xe905;" glyph-name="close" d="M1024 896.073l-447.634-448.073 447.634-448-63.634-64-448.366 448-448.366-448-63.634 64 448.366 448-448.366 448.073 63.634 64 448.366-448.073 448.366 448z" />
<glyph unicode="&#xe906;" glyph-name="copyrigter" d="M933.065-33.616c-27.027 0-32.516 110.458-32.516 111.633v614.064l-25.348-24.677v-202.953h-19.943v211.347l45.325 44.15v25.684c0.11 11.561 9.391 20.918 20.911 21.151h0.022c9.367 0.168 13.799 0.168 23.166 0 11.539-0.234 20.816-9.593 20.916-21.142v-667.624c-0.034-1.175-5.523-111.633-32.533-111.633zM945.605 745.631c-0.027 0.655-0.565 1.176-1.224 1.176-0.018 0-0.036 0-0.054-0.001h0.003c-9.115 0.168-13.43 0.168-22.494 0-0.021 0.001-0.045 0.002-0.069 0.002-0.663 0-1.205-0.52-1.24-1.174v-25.855h25.18v25.852zM945.605 698.292h-25.18v-260.197h25.18v260.197zM945.605 418.119h-25.18v-296.289h25.18v296.289zM617.119-54.767c-5.857-5.81-13.923-9.401-22.827-9.401-0.019 0-0.037 0-0.056 0h-502.949c-17.961 0.038-32.507 14.602-32.516 32.566v959.036c0.010 17.964 14.556 32.528 32.513 32.567h687.108c17.957-0.038 32.499-14.604 32.499-32.566 0 0 0 0 0 0v0-776.561c-0.033-8.992-3.704-17.121-9.617-22.996l-0.002-0.002zM613.493-30.258l163.118 161.826h-150.578c-6.924-0.047-12.521-5.662-12.54-12.588v-149.237zM790.914 927.433c0 0.020 0 0.044 0 0.067 0 6.916-5.607 12.523-12.523 12.523-0.012 0-0.024 0-0.036 0h-687.068c-0.010 0-0.022 0-0.034 0-6.907 0-12.506-5.599-12.506-12.506 0-0.030 0-0.059 0-0.089v0.005-959.035c0.019-6.928 5.616-12.543 12.535-12.59h502.336v163.169c0 0 0 0 0 0 0 17.962 14.542 32.528 32.496 32.566h164.885v775.89zM147.573 280.97h540.672v-19.976h-540.638v19.976zM147.573 421.98h551.97v-19.976h-551.936v19.976zM153.197 760.572h551.953v-19.976h-551.953v19.976zM153.197 839.47h338.021v-19.976h-337.92v19.976zM660.161 698.46v-19.976h-506.964v19.976h506.964zM699.577 588.17h-551.97v19.976h551.936v-19.976zM699.577 526.059h-551.97v20.144h551.936v-20.144zM699.577 464.115h-551.97v19.976h551.936v-19.976zM688.313 323.106h-540.706v19.976h540.672v-19.976zM620.729 198.883h-473.122v19.976h473.088v-19.976zM305.337 86.075h-157.696v19.976h157.696v-19.976z" />
<glyph unicode="&#xe907;" glyph-name="designer" d="M1024 406.481h-58.833v-358.959h-965.167v800.582h965.167v-280.204h58.833v-161.42zM942.825 825.577h-920.483v-92.905h920.483v92.905zM942.825 710.144h-920.483v-640.093h920.483v336.431h-625.943l-159.744 80.617 159.744 80.803h625.943v142.243zM316.509 542.58l-109.661-55.482 109.661-55.296v110.778zM338.851 498.269h603.974v47.104h-603.974v-47.104zM338.851 475.927v-47.104h603.974v47.104h-603.974zM1001.658 545.373h-36.492v-116.55h36.492v116.55zM105.751 343.366h754.223v30.72h22.342v-53.062h-798.906v342.016h798.906v-59.392h-22.342v36.864h-754.223v-297.146zM313.158 117.155h-230.307v161.42h230.307v-161.42zM290.816 256.047h-185.623v-116.55h185.623v116.55zM597.83 117.155h-230.307v161.42h230.307v-161.42zM575.488 256.047h-185.623v-116.55h185.623v116.55zM882.502 117.155h-230.307v161.42h230.307v-161.42zM860.16 256.047h-185.623v-116.55h185.623v116.55zM94.394 769.722h-27.741v22.342h27.741v-22.342zM156.765 769.722h-27.741v22.342h27.741v-22.342zM219.136 769.722h-27.741v22.342h27.741v-22.342z" />
<glyph unicode="&#xe909;" glyph-name="dribbble" d="M512-64c-282.77 0-512 229.23-512 512s229.23 512 512 512c282.77 0 512-229.23 512-512v0c-0.62-282.52-229.48-511.38-511.94-512h-0.060zM944.265 378.368c-53.387 15.648-114.72 24.65-178.155 24.65-33.488 0-66.389-2.509-98.528-7.349l3.616 0.448c32.997-87.472 62.083-192.216 82.139-300.133l1.829-11.845c98.176 67.653 167.368 171.318 188.635 291.53l0.396 2.699zM682.667 45.227c-23.568 127.076-56.022 238.834-98.102 345.748l4.372-12.607h-2.799c-146.196-47.991-265.364-144.582-341.141-270.282l-1.557-2.785c73.379-57.535 166.788-92.589 268.349-93.524l0.212-0.002c1.608-0.022 3.506-0.034 5.406-0.034 59.682 0 116.488 12.315 168.016 34.543l-2.755-1.058zM187.46 154.453c82.844 132.031 205.123 232.696 350.159 286.516l4.828 1.569c5.322 2.534 11.558 4.038 18.139 4.096h0.020c-11.196 25.259-22.391 50.517-36.386 75.776-129.581-39.489-278.518-62.226-432.765-62.226-6.257 0-12.505 0.037-18.744 0.112l0.949-0.009v-13.653c0.369-112.685 43.34-215.263 113.64-292.535l-0.318 0.354zM83.968 536.064c144.226 1.508 283.354 20.342 416.33 54.511l-12.055-2.628c-56.127 98.721-109.336 180.976-166.568 260.132l5.663-8.228c-124.249-56.23-215.202-167.068-242.963-301.039l-0.476-2.748zM409.941 870.571c52.828-72.013 106.997-155.157 156.689-241.21l7.151-13.425c91.969 31.897 169.447 85.81 228.833 155.594l0.611 0.736c-75.867 67.793-176.54 109.229-286.891 109.229-0.444 0-0.888-0.001-1.331-0.002h0.069c-6.918 0.59-14.971 0.927-23.103 0.927-29.169 0-57.327-4.33-83.866-12.382l2.043 0.533zM850.603 723.797c-64.104-76.335-145.966-135.701-239.342-172.018l-4.029-1.379c9.762-21.163 20.958-40.96 29.355-63.488 2.799-6.827 6.827-15.019 9.762-21.845 31.049 3.25 67.082 5.103 103.547 5.103 71.251 0 140.848-7.076 208.129-20.565l-6.728 1.126c-2.413 104.175-40.040 199.119-101.386 273.85l0.624-0.784z" />
<glyph unicode="&#xe90a;" glyph-name="fb-hover" d="M732.911 960h-114.62c-128.751 0-211.627-98.918-211.627-252.041v-116.053h-115.575c-10.154-0.847-18.074-9.297-18.074-19.597 0-0.503 0.019-1.002 0.056-1.495l-0.004 0.066v-168.414c-0.030-0.406-0.047-0.879-0.047-1.356 0-10.285 7.924-18.718 18-19.529l0.069-0.004h115.234v-425.097c-0.015-0.283-0.023-0.615-0.023-0.949 0-10.276 7.911-18.704 17.975-19.527l0.070-0.005h150.187c10.134 0.827 18.045 9.255 18.045 19.531 0 0.334-0.008 0.665-0.025 0.995l0.002-0.046v424.823h134.758c10.145 0.815 18.069 9.249 18.069 19.533 0 0.477-0.017 0.951-0.051 1.419l0.004-0.063v168.687c0.001 0.063 0.001 0.138 0.001 0.212 0 5.523-1.987 10.581-5.286 14.499l0.028-0.034c-3.052 3.727-7.621 6.115-12.75 6.212h-134.57v98.441c0 47.377 9.762 71.407 62.942 71.407h77.21c10.145 0.815 18.069 9.249 18.069 19.533 0 0.477-0.017 0.951-0.051 1.419l0.004-0.063v156.331c0.037 0.45 0.057 0.974 0.057 1.503 0 10.315-7.917 18.782-18.006 19.655l-0.074 0.005z" />
<glyph unicode="&#xe90e;" glyph-name="front-end" d="M1024.074 731.741v-75.59l-39.098-5.772-5.492-18.804 32.042-22.714-38.018-65.722-36.734 14.895-14.206-14.15 14.895-35.561-65.592-37.795-24.204 30.906-18.86-4.841-4.58-38.912h-77.061l-4.636 39.098-18.972 5.585-23.999-30.72-65.592 37.795 15.006 35.561-14.224 14.895-35.486-16.012-38.037 65.722 31.092 24.017-4.971 19.921-38.893 4.468v75.59l39.098 5.772 5.585 18.991-30.906 22.714 37.814 65.35 36.827-13.777 13.982 13.405-16.067 35.375 67.025 37.795 24.092-30.906 18.86 4.841 4.58 38.912h75.813l5.734-39.098 18.879-5.399 22.938 32.023 67.025-39.284-14.895-35.561 13.386-13.964 36.51 14.708 37.869-65.164-31.279-24.39 4.338-19.735zM983.114 785.92l-18.264 31.651-32.526-13.219-34.109 35.561 13.033 31.092-32.321 18.804-20.238-28.3-48.016 13.964-5.046 34.071h-36.417l-4.040-34.257-48.035-12.288-21.243 27.183-32.284-18.246 14.168-31.092-35.654-34.071-32.228 12.102-18.302-31.651 27.369-20.108-13.889-47.849-34.239-5.027v-36.305l34.462-4.096 12.288-48.966-27.183-21.039 18.078-31.092 31.427 13.964 35.375-36.678-13.033-31.092 31.539-18.246 21.336 27.369 47.923-13.777 4.003-34.071h37.236l4.040 34.257 48.016 12.288 21.187-26.996 31.521 18.060-13.033 31.279 35.375 35.188 32.377-13.033 18.060 31.092-28.374 20.294 13.945 47.849 34.22 5.027v36.305l-34.723 4.096-10.761 49.152zM786.246 600.855c-51.815 0.148-93.761 42.186-93.761 94.021 0 51.927 42.095 94.022 94.022 94.022s94.022-42.095 94.022-94.021v0c-0.169-51.944-42.301-93.99-94.261-94.022h-0.003zM786.246 766.557c-39.516-0.095-71.512-32.151-71.512-71.68 0-39.588 32.092-71.68 71.68-71.68s71.68 32.092 71.68 71.68v0c-0.127 39.589-32.228 71.638-71.825 71.68h-0.004zM543.614 528.431l25.265-26.624 51.479 22.342 52.131-88.064-45.224-35.933 8.415-35.002 56.059-6.703v-102.586l-56.394-7.82-9.905-34.071 44.888-34.816-50.772-87.878-52.987 21.411-26.065-25.135 21.336-52.689-88.176-50.641-34.909 44.87-35.058-9.123-6.74-56.041h-102.828l-7.894 56.227-35.17 9.868-33.662-44.684-89.46 50.455 21.485 53.062-25.302 26.81-52.671-22.342-50.772 87.878 45 35.933-9.253 35.002-56.227 6.889v102.4l56.562 7.82 10.65 34.257-45.931 34.63 52.131 87.878 52.894-21.411 25.898 25.135-22.491 52.689 89.479 50.641 34.872-44.87 35.058 9.123 6.758 56.041h102.921l7.894-56.227 35.17-9.868 33.68 44.684 89.367-50.455zM481.764 602.903l-31.074-41.332-64.102 18.060-7.205 51.386h-63.302l-6.2-51.572-64.214-16.756-32.023 41.332-55.128-31.279 20.685-48.407-47.458-45.801-48.556 19.549-32.061-54.179 42.543-32.023-19.568-62.743-51.33-7.261v-63.116l51.647-6.144 16.756-63.86-41.314-32.954 31.223-54.179 48.761 20.666 45.912-48.407-19.512-48.221 55.147-31.092 31.055 41.146 64.102-18.060 7.224-51.386h63.302l6.181 51.572 64.233 16.756 31.986-41.146 54.253 31.092-19.661 48.593 47.346 45.801 48.407-19.549 31.26 53.993-41.463 32.209 18.171 62.557 51.479 7.261v63.116l-51.814 6.144-15.341 64.047 41.128 32.768-32.098 54.179-47.774-20.666-45.95 48.593 19.512 48.035zM345.982 146.944c-89.139 0.286-161.289 72.613-161.289 161.791 0 89.355 72.437 161.792 161.792 161.792s161.792-72.436 161.792-161.791v0c-0.191-89.396-72.704-161.792-162.127-161.792-0.052 0-0.105 0-0.157 0h0.008zM345.982 448c-76.756-0.275-138.873-62.562-138.873-139.356 0-76.965 62.392-139.357 139.357-139.357s139.357 62.392 139.357 139.357c0 0.032 0 0.065 0 0.097v-0.005c-0.212 76.959-62.648 139.264-139.636 139.264-0.066 0-0.131 0-0.197 0h0.010zM351.381 507.206c-0.044 0-0.097 0-0.15 0-112.706 0-204.109-91.207-204.427-203.838v-0.031c0-6.2-5.026-11.227-11.227-11.227s-11.227 5.026-11.227 11.227v0c0.36 125.113 101.867 226.397 227.029 226.397 0 0 0.001 0 0.001 0v0c0.003 0 0.006 0 0.009 0 6.221 0 11.264-5.043 11.264-11.264 0-6.218-5.038-11.259-11.254-11.264h-0.001zM725.439 376.879l46.359 46.173 28.858-18.804 6.591 32.954h65.89l6.572-32.954 28.858 18.804 46.359-46.173-18.86-28.858 32.954-6.516v-65.722l-32.954-6.516 18.86-28.858-46.341-46.173-28.877 18.804-6.572-32.768h-65.89l-6.591 32.768-28.877-18.804-46.341 46.173 18.86 28.858-32.954 6.516v65.722l32.954 6.516zM733.798 323.072v-28.858l29.454-5.958 7.447-19.735-16.477-25.135 20.48-20.48 25.172 16.384 19.81-7.261 5.902-29.417h29.044l5.902 29.417 19.81 7.261 25.172-16.384 20.48 20.48-16.496 25.135 7.447 19.735 29.454 5.958v28.858l-29.454 5.958-7.447 19.735 16.496 25.135-20.48 20.48-25.209-16.384-19.81 7.447-5.883 29.231h-29.044l-5.79-29.231-19.81-7.447-25.209 16.384-20.48-20.48 16.477-25.135-7.447-19.735zM840.183 364.032c30.467-0.095 55.128-24.816 55.128-55.296 0-30.539-24.757-55.296-55.296-55.296s-55.296 24.757-55.296 55.296v0c0.137 30.569 24.95 55.296 55.538 55.296 0 0 0 0 0.001 0v0zM840.183 275.782c18.084 0.085 32.712 14.764 32.712 32.861 0 18.149-14.712 32.861-32.861 32.861-18.116 0-32.808-14.659-32.861-32.763v-0.005c0.021-18.205 14.784-32.954 32.991-32.954 0.033 0 0.065 0 0.098 0h-0.005z" />
<glyph unicode="&#xe90f;" glyph-name="info1" d="M512 704c0.183 0 0.4 0.001 0.618 0.001 53.52 0 103.17-16.568 144.102-44.854l-0.847 0.554 164.33 196.341c-84.721 64.876-192.182 103.957-308.771 103.957-220.631 0-408.573-139.954-479.893-335.927l-1.129-3.55 245.226-74.351c39.534 93.434 130.43 157.803 236.362 157.83h0.004zM512 192c-0.113 0-0.246 0-0.379 0-141.176 0-255.622 114.446-255.622 255.622 0 17.542 1.767 34.67 5.132 51.218l-0.279-1.643-245.248 74.351c-9.914-37.594-15.607-80.753-15.607-125.242 0-281.835 228.473-510.308 510.308-510.308 0.596 0 1.191 0.001 1.786 0.003h-0.092c12.466 0 24.71 0.89 36.953 1.781l-31.165 254.442c-2.070 0-3.873-0.223-5.788-0.223zM859.47 823.318l-164.397-196.563c45.092-46.070 72.916-109.197 72.916-178.822 0-121.308-84.464-222.889-197.789-249.14l-1.725-0.336 31.165-254.442c242.514 42.903 424.346 252.053 424.346 503.673 0 148.36-63.214 281.955-164.177 375.321l-0.34 0.311zM372.691 519.68h62.019v-206.136h-62.019v206.136zM481.080 445.997h61.885v-132.452h-61.885v132.452zM589.401 582.456h61.907v-268.911h-61.907v268.911z" />
<glyph unicode="&#xe910;" glyph-name="info2" d="M735.944 960v-65.892h-85.927v65.892h-95.054v-65.892h-85.927v65.892h-95.054v-65.892h-85.927v65.892h-95.054v-131.784h637.774v131.784h-94.831zM122.435 41.739h779.13v-105.739h-779.13v105.739zM193.002 767.443l91.492-113.753h455.012l91.27 113.753h-637.774zM308.981 592.918h406.038v-323.673h-406.038v323.673zM736.39 208.473h-448.779c-58.291-0.076-105.517-47.348-105.517-105.65 0-0.031 0-0.063 0-0.094v0.005h659.812c0 0.027 0 0.058 0 0.089 0 58.302-47.225 105.574-105.509 105.65h-0.007z" />
<glyph unicode="&#xe911;" glyph-name="info3" d="M958.054 826.88h-888.422c-0.194 0.002-0.424 0.003-0.654 0.003-37.538 0-68.075-29.977-68.977-67.299l-0.002-0.084v-624.026c0.766-36.824 30.798-66.382 67.734-66.382 0.667 0 1.333 0.010 1.995 0.029l-0.097-0.002h888.422c0.291-0.005 0.634-0.007 0.977-0.007 35.889 0 64.983 29.094 64.983 64.983 0 0.485-0.005 0.969-0.016 1.451l0.001-0.072v624.026c0.017 0.55 0.026 1.196 0.026 1.845 0 36.195-29.341 65.536-65.536 65.536-0.153 0-0.306-0.001-0.459-0.002h0.023zM233.677 788.582c13.497-0.174 24.371-11.155 24.371-24.676 0-13.63-11.049-24.678-24.678-24.678-13.593 0-24.619 10.99-24.678 24.568v0.006c0.070 13.701 11.193 24.781 24.903 24.781 0.029 0 0.058 0 0.087 0h-0.004zM161.792 788.582c13.497-0.174 24.371-11.155 24.371-24.676 0-13.63-11.049-24.678-24.678-24.678-13.593 0-24.619 10.99-24.678 24.568v0.006c0 0 0 0.001 0 0.001 0 13.686 11.095 24.781 24.781 24.781 0.072 0 0.144 0 0.216-0.001h-0.011zM90.112 788.582c13.497-0.174 24.371-11.155 24.371-24.676 0-13.63-11.049-24.678-24.678-24.678-13.593 0-24.619 10.99-24.678 24.568v0.006c0.070 13.701 11.193 24.781 24.903 24.781 0.029 0 0.058 0 0.087 0h-0.004zM961.946 132.198c0-1.024 0.41-1.843-0.614-1.843h-899.277v568.32c0.634 1.109 1.81 1.845 3.158 1.845 0.042 0 0.083-0.001 0.125-0.002h895.994c1.024 0 0.614-0.819 0.614-1.843v-566.477zM938.189 738.816h-271.565c-13.743 0-24.883 11.141-24.883 24.883s11.141 24.883 24.883 24.883v0l271.565-0.205c13.686 0 24.781-11.095 24.781-24.781s-11.095-24.781-24.781-24.781v0zM154.624 547.533h271.565c13.686 0 24.781 11.095 24.781 24.781s-11.095 24.781-24.781 24.781l-271.565 0.205c-13.743 0-24.883-11.141-24.883-24.883s11.141-24.883 24.883-24.883v0zM426.189 512.922h-271.565c-13.686 0-24.781-11.095-24.781-24.781s11.095-24.781 24.781-24.781h271.565c13.686 0 24.781 11.095 24.781 24.781s-11.095 24.781-24.781 24.781v0zM426.189 428.749h-271.565c-13.686 0-24.781-11.095-24.781-24.781s11.095-24.781 24.781-24.781h271.565c13.686 0 24.781 11.095 24.781 24.781s-11.095 24.781-24.781 24.781v0zM426.189 344.576h-271.565c-13.686 0-24.781-11.095-24.781-24.781s11.095-24.781 24.781-24.781h271.565c13.686 0 24.781 11.095 24.781 24.781s-11.095 24.781-24.781 24.781v0zM848.896 604.877h-287.13c-0.147 0.002-0.322 0.002-0.496 0.002-26.671 0-48.396-21.182-49.268-47.641l-0.002-0.080v-285.286c0.874-25.521 21.773-45.878 47.426-45.878 0.175 0 0.349 0.001 0.524 0.003h288.946c0.002 0 0.005 0 0.007 0 26.015 0 47.104 21.089 47.104 47.104 0 0.288-0.003 0.575-0.008 0.862l0.001-0.043v283.238c0.003 0.183 0.004 0.398 0.004 0.614 0 26.015-21.089 47.104-47.104 47.104-0.001 0-0.003 0-0.004 0v0z" />
<glyph unicode="&#xe912;" glyph-name="info4" d="M490.763 960h42.496v-85.259h-42.496v85.259zM259.851 886.539l36.819 21.148 42.496-73.906-36.819-21.148zM96.523 706.894l21.237 36.953 73.617-42.741-21.259-36.953zM44.522 512.111h84.992v-42.741h-84.992v42.741zM96.501 274.588l73.617 42.518 21.237-36.953-73.617-42.518zM832.579 280.376l21.237 36.953 73.617-42.741-21.259-36.953zM894.486 512.111h84.992v-42.741h-84.992v42.741zM832.623 701.106l73.617 42.741 21.237-36.953-73.617-42.741zM684.833 834.003l42.474 73.906 36.819-21.37-42.496-73.906zM330.997 106.741c2.404-14.024 4.452-28.271 6.077-42.741h349.785q2.538 21.37 6.567 42.741h-362.429zM340.68 21.482c0.735-13.802 1.336-27.603 1.336-41.628v-43.854h339.968v52.981c0 10.685 0.623 21.593 1.18 32.501h-342.573zM686.859 64c-1.692-14.247-2.961-28.271-3.695-42.518h62.575v42.518h-58.88zM337.074 64h-58.813v-42.518h62.33c-0.69 14.247-1.959 28.494-3.517 42.518zM702.887 149.482q-5.454-21.37-9.461-42.741h73.572v42.741h-64.111zM322.226 149.482h-65.269v-42.741h73.995q-3.718 21.704-8.682 42.741zM724.458 750.525c-55.768 50.645-130.171 81.65-211.815 81.65-13.045 0-25.905-0.792-38.535-2.329l1.518 0.151c-159.801-19.537-282.359-154.405-282.359-317.897 0-63.685 18.596-123.026 50.653-172.89l-0.765 1.271c34.859-54.882 62.117-118.666 78.225-186.76l0.846-4.238h380.661c20.16 76.042 48.86 142.69 85.795 203.803l-1.938-3.455c27.646 46.435 43.988 102.392 43.988 162.166 0 94.549-40.889 179.548-105.948 238.279l-0.282 0.251zM424.982 426.852l-30.052-30.275-104.27 104.849 104.27 104.626 30.052-30.275-74.218-74.351zM479.766 351.61l-39.914 14.47 103.157 285.162 39.914-14.692zM628.914 396.577l-30.052 30.275 74.218 74.574-74.218 74.351 30.052 30.275 104.27-104.626z" />
<glyph unicode="&#xe913;" glyph-name="info5" d="M985.452 638.009l-90.84-24.348c-13.078-3.821-22.469-15.704-22.469-29.781 0-17.104 13.866-30.97 30.97-30.97 2.637 0 5.197 0.33 7.642 0.95l-0.214-0.046 90.84 24.348c13.078 3.821 22.469 15.704 22.469 29.781 0 17.104-13.866 30.97-30.97 30.97-2.637 0-5.197-0.33-7.642-0.95l0.214 0.046zM995.487 439.353l-75.23 43.918c-4.231 2.328-9.273 3.697-14.635 3.697-17.016 0-30.811-13.795-30.811-30.811 0-11.122 5.893-20.868 14.728-26.285l0.134-0.077 75.23-43.691c4.422-2.66 9.759-4.234 15.463-4.234 11.26 0 21.088 6.131 26.329 15.237l0.078 0.147c2.581 4.416 4.105 9.722 4.105 15.383 0 11.35-6.123 21.27-15.247 26.636l-0.145 0.079zM899.573 797.298c-4.424 2.661-9.764 4.235-15.472 4.235-11.265 0-21.097-6.131-26.343-15.238l-0.078-0.147-43.236-75.548c-2.562-4.405-4.074-9.693-4.074-15.336 0-11.378 6.149-21.32 15.306-26.683l0.146-0.079c4.424-2.661 9.764-4.235 15.472-4.235 11.265 0 21.097 6.131 26.343 15.238l0.078 0.147 43.236 75.548c2.562 4.405 4.074 9.693 4.074 15.336 0 11.378-6.149 21.32-15.306 26.683l-0.146 0.079zM165.365 610.020c-37.149-10.383-64.463-42.596-67.406-81.612l-0.019-0.308-5.461-1.593c-53.495-14.363-92.232-62.42-92.232-119.525 0-68.242 55.321-123.563 123.563-123.563 11.604 0 22.834 1.6 33.482 4.59l-0.87-0.209 5.461 1.593c16.701-24.495 44.473-40.369 75.953-40.369 8.335 0 16.411 1.113 24.085 3.198l-0.642-0.149 148.093 39.595-95.915 357.945zM620.976 923.819c-26.375-7.295-45.419-31.081-45.419-59.314 0-5.776 0.797-11.367 2.287-16.667l-0.104 0.433 159.858-596.423c6.893-26.886 30.909-46.441 59.492-46.441 33.87 0 61.326 27.457 61.326 61.326 0 5.963-0.851 11.727-2.438 17.178l0.108-0.433-159.858 596.651c-7.184 26.538-31.050 45.741-59.4 45.741-5.596 0-11.017-0.748-16.169-2.15l0.431 0.1zM277.254 192.455c-8.882-2.48-19.267-4.261-29.942-4.98l-0.482-0.026 40.778-152.235c10.514-40.103 46.433-69.209 89.151-69.209 50.823 0 92.023 41.2 92.023 92.023 0 8.892-1.261 17.489-3.614 25.622l0.161-0.65-39.959 149.049zM504.149 781.824c-30.067-51.486-75.743-91.053-130.461-112.705l-1.772-0.618 97.485-363.861c12.024 1.953 25.885 3.068 40.006 3.068 48.301 0 93.553-13.053 132.422-35.824l-1.238 0.67 33.041-19.115-150.482 561.607z" />
<glyph unicode="&#xe914;" glyph-name="info6" d="M830.33 248.988l-371.757 133.565v363.52c-0.018 8.397-3.521 15.973-9.139 21.361l-0.010 0.010c-4.976 4.751-11.732 7.674-19.171 7.674-0.853 0-1.696-0.038-2.53-0.114l0.107 0.008c-220.701-13.802-394.472-196.176-394.472-419.136 0-231.908 187.999-419.907 419.907-419.907 180.122 0 333.755 113.411 393.388 272.722l0.951 2.898c1.104 2.988 1.742 6.44 1.742 10.040 0 4.513-1.003 8.792-2.798 12.626l0.077-0.183c-3.258 6.942-9.021 12.256-16.097 14.851l-0.198 0.064zM819.534 837.343c-0.079 8.6-3.883 16.297-9.874 21.565l-0.032 0.028c-64.194 56.836-147.067 93.9-238.349 100.977l-1.401 0.087c-0.552 0.038-1.196 0.059-1.846 0.059-7.653 0-14.608-2.989-19.761-7.863l0.013 0.013c-5.63-5.313-9.144-12.818-9.171-21.143v-363.748l271.004 248.209c5.839 5.373 9.484 13.051 9.484 21.581 0 0.083 0 0.165-0.001 0.247v-0.013zM879.171 697.322c-4.958 5.619-11.95 9.342-19.814 10.010l-0.11 0.008c-0.497 0.031-1.079 0.049-1.664 0.049-7.472 0-14.266-2.898-19.321-7.632l0.016 0.015-273.163-249.99 368.195-132.23c2.869-1.069 6.184-1.688 9.643-1.688 5.147 0 9.974 1.37 14.136 3.765l-0.138-0.073c7.129 4.225 12.258 11.185 13.969 19.398l0.033 0.191c5.399 25.386 8.49 54.554 8.49 84.444 0 104.612-37.868 200.38-100.643 274.344l0.505-0.611z" />
<glyph unicode="&#xe915;" glyph-name="logo" horiz-adv-x="8533" d="M8008.818-64h-449.422v292.409h449.422c0.849-0.012 1.852-0.018 2.856-0.018 121.74 0 220.579 98.051 221.854 219.489l0.001 0.121c-1.276 121.559-100.115 219.609-221.855 219.609-1.004 0-2.007-0.007-3.008-0.020l0.152 0.002h-449.422v292.409h449.422c1.704 0.020 3.717 0.032 5.733 0.032 284.151 0 514.949-228.429 518.778-511.671l0.004-0.361c0-282.169-234.951-512-524.516-512zM6720.284 499.2v-563.2h-299.804v1024h271.36l432.924-541.013v541.013h284.444v-1024h-253.724zM5746.347-64c-1.871-0.024-4.082-0.038-6.295-0.038-284.039 0-514.709 228.5-518.217 511.707l-0.003 0.331c0 282.738 234.951 512 524.516 512 290.133 0 524.516-229.262 524.516-512s-234.951-512-524.516-512zM5746.347 718.791c-124.018 0-250.311-100.693-247.467-270.791 3.413-162.702 123.449-270.791 247.467-270.791s246.329 114.347 247.467 270.791c0 157.013-123.449 270.791-247.467 270.791zM4772.409 521.387l-261.689-403.911h-5.689l-264.533 403.911v-585.387h-299.804v1024h321.991l247.467-402.204 254.862 402.204h307.2v-1024h-299.804zM3408.782 119.182h-404.48l-82.489-183.182h-299.804l449.422 1024h277.049l442.596-1024h-307.2zM3206.258 623.787l-112.071-292.978h224.711zM2173.156 960h299.804v-1024h-299.804zM1499.022-64h-449.422v292.409h449.422c0.682-0.008 1.487-0.012 2.294-0.012 121.852 0 220.819 97.979 222.416 219.452l0.002 0.151c-1.598 121.623-100.566 219.603-222.418 219.603-0.806 0-1.612-0.004-2.416-0.013l0.123 0.001h-449.422v292.409h449.422c1.704 0.020 3.717 0.032 5.733 0.032 284.151 0 514.949-228.429 518.778-511.671l0.004-0.361c0-282.169-235.52-512-524.516-512zM449.991-64c-1.363-0.015-2.974-0.024-4.587-0.024-243.703 0-441.638 195.959-444.832 438.904l-0.003 0.302v584.818h299.804v-584.818c0.639-81.203 66.614-146.783 147.907-146.783 0.602 0 1.202 0.004 1.802 0.011l-0.091-0.001c0.678-0.011 1.478-0.018 2.28-0.018 81.295 0 147.272 65.585 147.906 146.73v584.878h299.236v-584.818c-3.197-243.247-201.132-439.206-444.835-439.206-1.613 0-3.224 0.009-4.833 0.026l0.245-0.002z" />
<glyph unicode="&#xe917;" glyph-name="mail-icon" d="M385.344 414.080l-362.24-298.88c13.066-11.911 30.521-19.205 49.679-19.205 0.31 0 0.619 0.002 0.928 0.006h876.753c0.242-0.003 0.528-0.005 0.814-0.005 19.118 0 36.533 7.296 49.61 19.255l-0.056-0.051-361.984 298.88-126.848-106.88zM950.336 800h-876.8c-0.232 0.003-0.505 0.004-0.779 0.004-19.15 0-36.596-7.294-49.711-19.256l0.058 0.052 488.768-403.2 488.832 403.2c-13.031 11.909-30.453 19.204-49.579 19.204-0.277 0-0.555-0.002-0.831-0.005h0.042zM0 153.6l353.472 288.64-353.472 295.68v-584.32zM1024 153.6v584.96l-353.472-296.32z" />
<glyph unicode="&#xe918;" glyph-name="manager" d="M716.069-63.634v86.857c0 0.019 0 0.042 0 0.065 0 66.541 43.771 122.859 104.091 141.731l1.052 0.284c-21.834 14.559-36.023 39.086-36.023 66.927 0 44.284 35.899 80.183 80.183 80.183s80.183-35.899 80.183-80.183c0-27.841-14.189-52.368-35.731-66.743l-0.292-0.184c61.372-19.156 105.143-75.474 105.143-142.015 0-0.023 0-0.046 0-0.069v0.004-86.857h-298.606zM923.611 232.229c0 0.027 0 0.059 0 0.091 0 32.165-26.075 58.24-58.24 58.24s-58.24-26.075-58.24-58.24c0-32.133 26.023-58.188 58.144-58.24h0.005c32.143 0.021 58.207 26.020 58.331 58.137v0.012zM992.731 23.223c-0.062 69.694-56.492 126.188-126.156 126.354h-2.393c-69.68-0.166-126.109-56.66-126.171-126.348v-64.737h47.177v116.846c0 6.059 4.912 10.971 10.971 10.971s10.971-4.912 10.971-10.971v0-116.846h116.48v116.846c0 6.059 4.912 10.971 10.971 10.971s10.971-4.912 10.971-10.971v0-116.846h47.177v64.731zM862.537 434.834c0 0.043 0 0.095 0 0.146 0 17.378-14.077 31.467-31.45 31.488h-308.299v-95.634h-22.126v95.634h-308.297c-17.375-0.021-31.452-14.11-31.452-31.488 0-0.051 0-0.103 0-0.154v0.008-64h-22.126v64c0.031 29.614 23.977 53.625 53.564 53.76h308.31v63.634h22.126v-63.634h308.297c29.6-0.135 53.546-24.146 53.577-53.757v-64.003h-22.126v64zM362.24 670.72c0.108 66.575 43.918 122.889 104.272 141.795l1.054 0.285c-21.834 14.559-36.023 39.086-36.023 66.927 0 44.284 35.899 80.183 80.183 80.183s80.183-35.899 80.183-80.183c0-27.841-14.189-52.368-35.731-66.743l-0.292-0.184c61.362-19.208 105.117-75.531 105.143-142.077v-86.86h-298.789v86.857zM569.966 879.726c-0.052 32.126-26.107 58.149-58.24 58.149-32.165 0-58.24-26.075-58.24-58.24 0-32.133 26.023-58.188 58.144-58.24h0.005c32.207 0.021 58.311 26.124 58.331 58.329v0.002zM384.366 605.989h47.177v116.846c0 6.059 4.912 10.971 10.971 10.971s10.971-4.912 10.971-10.971v0-116.846h116.48v116.846c0 6.059 4.912 10.971 10.971 10.971s10.971-4.912 10.971-10.971v0-116.846h47.177v64.731c-0.062 69.694-56.492 126.188-126.156 126.354h-2.393c-69.68-0.166-126.109-56.66-126.171-126.348v-64.737zM238.811 232.229c0-0.017 0-0.038 0-0.058 0-27.823-14.191-52.332-35.73-66.684l-0.293-0.184c61.442-19.14 105.28-75.484 105.326-142.075v-86.862h-298.789v86.857c0.045 66.543 43.791 122.856 104.089 141.795l1.054 0.285c-21.939 14.564-36.206 39.164-36.206 67.096 0 44.334 35.94 80.274 80.274 80.274s80.274-35.94 80.274-80.274c0-0.060 0-0.12 0-0.18v0.009zM31.269 23.223v-64.731h47.177v116.846c0 6.11 4.953 11.063 11.063 11.063s11.063-4.953 11.063-11.063v-116.846h116.297v116.846c0 6.059 4.912 10.971 10.971 10.971s10.971-4.912 10.971-10.971v0-116.846h47.177v64.731c-0.062 69.694-56.492 126.188-126.156 126.354h-2.393c-69.68-0.166-126.109-56.66-126.171-126.348v-0.006zM100.571 232.229c0.104-32.036 26.098-57.966 58.148-57.966 32.115 0 58.149 26.034 58.149 58.149s-26.034 58.148-58.148 58.149v0c-32.119-0.021-58.149-26.063-58.149-58.185 0-0.051 0-0.103 0-0.154v0.008zM465.737 165.303c-21.834 14.559-36.023 39.086-36.023 66.927 0 44.284 35.899 80.183 80.183 80.183s80.183-35.899 80.183-80.183c0-27.841-14.189-52.368-35.731-66.743l-0.292-0.184c61.351-19.224 105.098-75.537 105.143-142.075v-86.862h-298.789v86.857c0.046 66.596 43.884 122.94 104.273 141.797l1.053 0.283zM567.954 232.229c0 32.115-26.034 58.149-58.149 58.149s-58.149-26.034-58.149-58.149c0-32.115 26.034-58.149 58.149-58.149v0c32.098 0.042 58.107 26.051 58.149 58.145v0.004zM382.537-41.509h47.177v116.846c0 6.059 4.912 10.971 10.971 10.971s10.971-4.912 10.971-10.971v0-116.846h116.297v116.846c0 6.11 4.953 11.063 11.063 11.063s11.063-4.953 11.063-11.063v-116.846h47.177v64.731c-0.062 69.694-56.492 126.188-126.156 126.354h-2.393c-69.68-0.166-126.109-56.66-126.171-126.348v-64.737z" />
<glyph unicode="&#xe919;" glyph-name="marketing" d="M1009.105 714.799c-6.869-6.901-16.376-11.171-26.88-11.171-0.021 0-0.043 0-0.064 0h0.003c-5.507 0.004-10.725 1.239-15.394 3.445l0.22-0.093-123.29-143.36c3.984-5.874 6.36-13.12 6.36-20.921 0-20.76-16.83-37.59-37.59-37.59-18.88 0-34.509 13.919-37.185 32.055l-0.025 0.205-58.331 7.447c-8.138-54.027-29.026-102.070-59.5-142.478l0.573 0.793 24.781-24.762 3.146 3.165c5.456 5.185 12.852 8.375 20.992 8.375s15.536-3.189 21.005-8.387l-0.013 0.012 249.484-249.856c1.428-1.618 2.669-3.454 3.657-5.438l0.066-0.147 0.95 0.931c14.848-14.444 24.060-34.616 24.060-56.939 0-43.855-35.552-79.407-79.407-79.407-22.333 0-42.512 9.219-56.94 24.060l-0.018 0.019 0.931 0.931c-2.133 1.045-3.97 2.287-5.61 3.745l0.025-0.022-249.595 249.67c-5.376 5.388-8.7 12.825-8.7 21.039s3.324 15.65 8.7 21.039l-0.001-0.001 3.128 3.165-24.799 24.762c-51.376-39.050-116.419-62.558-186.952-62.558-61.55 0-118.918 17.901-167.183 48.782l1.246-0.745-39.955-56.227c5.048-6.148 8.162-14.053 8.322-22.679l0.001-0.035c0.051-0.738 0.080-1.6 0.080-2.469 0-21.069-17.080-38.149-38.149-38.149s-38.149 17.080-38.149 38.149c0 4.348 0.727 8.526 2.067 12.419l-0.080-0.268-72.611 45.801c-6.554-5.827-15.213-9.414-24.708-9.495h-0.017c-0.002 0-0.004 0-0.006 0-21.059 0-38.13 17.071-38.13 38.13s17.071 38.13 38.13 38.13c10.494 0 19.997-4.239 26.892-11.098l-0.002 0.002v-0.186c6.899-6.818 11.171-16.28 11.171-26.74 0-0.025 0-0.049 0-0.074v0.004c-0.227-3.534-0.891-6.833-1.942-9.955l0.080 0.274 72.89-45.801c6.577 5.531 15.14 8.891 24.487 8.891 4.156 0 8.157-0.664 11.902-1.892l-0.27 0.077 39.619 55.855c-78.462 57.653-128.819 149.58-128.819 253.268 0 173.076 140.306 313.381 313.381 313.381s313.381-140.306 313.381-313.381c0-0.087 0-0.173 0-0.26v0.013c0-7.82-0.391-15.639-0.968-23.273l58.163-7.447c1.927 4.31 4.429 8.004 7.462 11.187l-0.015-0.016c6.853 6.836 16.311 11.063 26.757 11.063 5.552 0 10.826-1.194 15.577-3.34l-0.239 0.096 123.308 143.36c-3.763 5.763-6.001 12.819-6.001 20.397 0 20.802 16.863 37.665 37.665 37.665 10.548 0 20.084-4.336 26.921-11.323l0.007-0.007c6.844-6.893 11.074-16.39 11.074-26.875 0-10.513-4.252-20.032-11.131-26.932l0.001 0.001zM37.851 330.705c-0.275-0.026-0.512-0.165-0.669-0.37l-0.002-0.002 0.67-0.559 0.465 0.745c-0.168 0-0.317 0.186-0.484 0.186zM172.051 245.248l-0.633 0.372 0.633-0.559v0.186zM966.395 30.58c10.306 10.334 16.678 24.596 16.678 40.346 0 7.596-1.482 14.846-4.174 21.477l0.137-0.383c-0.481-0.847-0.992-1.578-1.564-2.256l0.018 0.022-70.302-70.377c-0.673-0.543-1.43-1.038-2.233-1.454l-0.075-0.035c6.274-2.595 13.56-4.102 21.197-4.102 15.75 0 30.004 6.408 40.296 16.759l0.003 0.003zM880.957 35.049c1.399-1.215 3.238-1.956 5.25-1.956s3.852 0.741 5.26 1.964l-0.010-0.008 70.302 70.377c1.326 1.401 2.141 3.297 2.141 5.383 0 0.006 0 0.011 0 0.017v-0.001c-0.036 2.026-0.845 3.857-2.144 5.216l-213.175 213.361-80.803-80.989zM631.343 284.905l20.703-20.666 80.803 80.803-20.685 20.666c-1.327 1.38-3.188 2.237-5.25 2.237s-3.924-0.857-5.248-2.235l-70.323-70.379c-1.322-1.343-2.138-3.188-2.138-5.223 0-2.026 0.809-3.862 2.121-5.205l-0.001 0.001zM634.508 330.147l32.526 32.396-23.291 23.459c-10.097-11.941-20.646-22.709-31.931-32.665l-0.335-0.29zM406.993 298.868c145.636 0.339 266.162 107.409 287.521 247.117l0.204 1.622-26.494 3.351c-19.873-128.128-129.303-225.081-261.415-225.28h-0.021c-0.002 0-0.004 0-0.007 0-50.857 0-98.33 14.485-138.52 39.555l1.106-0.643-15.397-21.783c43.407-27.571 96.282-43.939 152.981-43.939 0.008 0 0.016 0 0.024 0h-0.001zM418.779 556.172c-4.261 0.176-8.267 1.049-11.98 2.507l0.25-0.087-124.742-175.942c35.629-21.866 78.773-34.817 124.942-34.817 120.904 0 221.065 88.814 238.8 204.76l0.169 1.344-192.94 24.762c-1.947-4.384-4.487-8.141-7.573-11.372l0.014 0.015c-6.858-6.9-16.355-11.171-26.849-11.171-0.039 0-0.077 0-0.116 0h0.006zM432.575 608.116l-3.854-3.91h0.317zM418.89 595.27h-0.112c-0.032 0.006-0.070 0.009-0.108 0.009-0.259 0-0.481-0.155-0.579-0.378l-0.002-0.004 0.689-0.559zM389.101 571.625c-4.972 6.347-7.973 14.445-7.973 23.244 0 10.304 4.115 19.646 10.791 26.474l-0.007-0.007c6.919 6.818 16.424 11.028 26.913 11.028s19.993-4.21 26.917-11.032l-0.005 0.005c5.171-5.441 8.72-12.469 9.844-20.28l0.024-0.2 192.959-24.762c0.279 4.655 0.726 9.495 0.726 14.336 0 0.128 0 0.281 0 0.433 0 133.899-108.547 242.446-242.446 242.446s-242.446-108.547-242.446-242.446c0-80.097 38.842-151.123 98.717-195.268l0.666-0.469zM407.049 881.617c-0.044 0-0.095 0-0.147 0-160.747 0-291.058-130.311-291.058-291.058 0-96.333 46.8-181.735 118.904-234.711l0.809-0.567 15.341 21.597c-66.196 48.694-108.674 126.289-108.674 213.806 0 146.166 118.491 264.657 264.657 264.657s264.657-118.491 264.657-264.657c0-0.090 0-0.179 0-0.269v0.014c0-5.772-0.503-11.543-0.875-17.315l26.55-3.351c0.465 6.889 1.043 13.591 1.043 20.48-0.138 160.834-130.455 291.184-291.263 291.375h-0.018zM812.088 543.884v-0.186l0.652-0.559zM982.91 742.353c-0.194 0.116-0.429 0.185-0.68 0.185s-0.485-0.069-0.686-0.188l0.006 0.003 0.614-0.559 0.782-0.745 13.033 14.336z" />
<glyph unicode="&#xe91b;" glyph-name="play" d="M871.322 448l-716.8-512v1024z" />
<glyph unicode="&#xe91e;" glyph-name="quotes-lg" d="M33.31 49.816q219.424 6.485 336.672 110.175t117.24 336.934v349.298h-437.779v-428.828h171.023v-8.609q0-83.816-56.468-134.334t-164.033-63.412zM570.133 49.816q219.432 6.485 336.672 110.175t117.244 336.934v349.298h-437.779v-428.828h171.023v-8.609q0-83.816-56.472-134.334t-164.033-63.412z" />
<glyph unicode="&#xe91f;" glyph-name="sem" d="M916.18 862.72l81.214-21.010-162.428-157.837-80.207 17.832-7.892-8.121v0.177l-9.128-9.181c67.245-72.382 108.509-169.706 108.509-276.669 0-130.317-61.251-246.327-156.535-320.813l-0.897-0.675 55.755-150.422h-129.306l-27.86 92.16c-44.649-18.43-96.49-29.131-150.83-29.131-50.725 0-99.272 9.324-144.020 26.352l2.781-0.929-26.783-88.452h-129.306l53.354 143.89c-100.65 75.372-165.093 194.331-165.093 328.341 0 225.914 183.139 409.053 409.053 409.053 111.637 0 212.83-44.721 286.639-117.227l-0.060 0.059 17.532 17.479-20.939 80.684 161.845 161.545 18.732-82.803 18.273 18.185c1.929 1.909 4.583 3.089 7.512 3.089 5.899 0 10.68-4.782 10.68-10.68 0-2.969-1.211-5.655-3.167-7.591l-0.001-0.001zM828.381 707.178l126.941 123.41-56.585 14.654-125.881-125.705zM631.014-42.637h82.979l-39.918 107.697-65.483-33.545zM169.807-42.637h82.979l22.457 74.152-18.008 9.181c-7.062 3.531-14.23 6.886-21.098 10.77l-26.483 13.594zM722.662 669.572l-56.302-56.143c49.283-53.845 79.479-125.875 79.479-204.957 0-167.897-136.107-304.004-304.004-304.004s-304.004 136.107-304.004 304.004c0 167.897 136.107 304.004 304.004 304.004 81.343 0 155.223-31.947 209.78-83.979l-0.121 0.114 56.497 56.497c-70.013 69.059-166.229 111.709-272.406 111.709-214.281 0-387.99-173.709-387.99-387.99 0-144.606 79.109-270.734 196.41-337.469l1.916-1.003 21.963-11.299c49.564-24.706 107.96-39.166 169.735-39.166 213.94 0 387.372 173.432 387.372 387.372 0 101.316-38.896 193.548-102.57 262.577l0.243-0.267zM441.944 308.348c-0.189-0.001-0.413-0.002-0.637-0.002-55.14 0-99.84 44.7-99.84 99.84s44.7 99.84 99.84 99.84c24.956 0 47.773-9.156 65.276-24.293l-0.127 0.107 63.188 63.029c-33.226 30.343-77.639 48.93-126.392 48.93-103.669 0-187.71-84.041-187.71-187.71s84.041-187.71 187.71-187.71c103.669 0 187.71 84.041 187.71 187.71 0 47.436-17.596 90.763-46.616 123.809l0.182-0.212-63.382-63.382c12.841-16.399 20.626-37.294 20.727-60.005v-0.023c-0.070-55.179-44.798-99.888-99.977-99.928h-0.004zM434.441 411.807l56.956 57.026c-13.273 10.731-30.356 17.227-48.957 17.227-43.176 0-78.177-35.001-78.177-78.177s35.001-78.177 78.177-78.177c43.176 0 78.177 35.001 78.177 78.177 0 0.138 0 0.276-0.001 0.414v-0.021c-0.024 16.902-5.46 32.529-14.668 45.246l0.156-0.226-56.673-56.497c-1.905-1.961-4.566-3.177-7.512-3.177s-5.607 1.217-7.51 3.175l-0.002 0.003c-1.951 1.922-3.16 4.594-3.16 7.547 0 2.91 1.173 5.546 3.072 7.46l-0.001-0.001zM652.2 408.276c0.002-0.325 0.003-0.71 0.003-1.094 0-116.54-94.474-211.015-211.015-211.015s-211.015 94.474-211.015 211.015c0 116.54 94.474 211.015 211.015 211.015 55.49 0 105.978-21.419 143.646-56.44l-0.13 0.12 51.783 51.73c-50.949 48.313-119.954 78.024-195.899 78.024-157.366 0-284.937-127.571-284.937-284.937s127.571-284.937 284.937-284.937c157.366 0 284.937 127.571 284.937 284.937 0 73.944-28.167 141.31-74.357 191.953l0.202-0.224-51.783-51.73c32.594-36.655 52.519-85.205 52.559-138.408v-0.008zM869.358 917.628l-125.952-125.705 14.654-56.497 123.833 126.764z" />
<glyph unicode="&#xe921;" glyph-name="skype-icon" d="M981.248 373.76c3.66 22.162 5.752 47.701 5.752 73.729 0 262.552-212.84 475.392-475.392 475.392-26.047 0-51.606-2.095-76.515-6.125l2.731 0.364c-42.387 26.909-94.016 42.883-149.375 42.883-0.473 0-0.946-0.001-1.418-0.003h0.073c-0.020 0-0.043 0-0.066 0-158.528 0-287.040-128.512-287.040-287.040 0-55.791 15.917-107.864 43.457-151.926l-0.703 1.206c-3.667-22.29-5.784-48.002-5.824-74.201v-0.039c0.291-262.333 213.019-474.882 475.392-474.882 26.050 0 51.611 2.095 76.524 6.127l-2.731-0.365c42.898-26.918 95.040-42.884 150.912-42.884 158.492 0 286.976 128.484 286.976 286.976 0 0.136 0 0.273 0 0.409v-0.021c0 0.117 0 0.255 0 0.393 0 55.553-15.92 107.387-43.446 151.19l0.694-1.183zM737.536 231.68c-22.178-30.071-52.107-53.242-86.861-66.745l-1.331-0.455c-38.194-15.849-82.553-25.053-129.063-25.053-2.822 0-5.636 0.034-8.442 0.101l0.416-0.008c-3.42-0.128-7.436-0.201-11.47-0.201-52.998 0-103.053 12.604-147.329 34.978l1.871-0.857c-29.025 15.692-52.994 37.287-70.985 63.328l-0.439 0.672c-16.377 21.747-26.615 48.939-27.705 78.468l-0.007 0.252c0 0.005 0 0.010 0 0.016 0 15.388 6.512 29.255 16.93 38.996l0.030 0.028c11.051 9.936 25.746 16.013 41.86 16.013 0.449 0 0.896-0.005 1.343-0.014l-0.067 0.001c0.288 0.005 0.627 0.009 0.968 0.009 13.397 0 25.664-4.843 35.144-12.874l-0.079 0.065c10.738-9.867 19.162-22.076 24.483-35.83l0.221-0.65c7.466-18.099 16.203-33.688 26.526-48.060l-0.478 0.7c10.271-12.942 23.397-23.174 38.459-29.826l0.645-0.254c17.566-7.787 38.056-12.321 59.605-12.321 2.446 0 4.879 0.058 7.296 0.174l-0.341-0.013c2.065-0.095 4.486-0.149 6.92-0.149 31.59 0 61.051 9.115 85.897 24.858l-0.657-0.389c20.837 12.336 34.646 34.609 34.88 60.127v0.033c0.043 0.844 0.067 1.832 0.067 2.827 0 17.035-7.172 32.396-18.662 43.226l-0.030 0.028c-13.571 12.455-30.077 21.942-48.347 27.301l-0.869 0.219c-20.352 6.4-47.68 13.44-81.92 20.48-44.273 9.246-82.916 21.381-119.845 36.802l4.325-1.602c-29.78 12.439-54.761 31.196-74.174 54.718l-0.258 0.322c-17.306 22.9-27.719 51.849-27.719 83.231 0 1.564 0.026 3.123 0.077 4.675l-0.006-0.226c-0.006 0.476-0.009 1.038-0.009 1.601 0 32.535 10.98 62.505 29.437 86.407l-0.244-0.328c21.625 26.922 50.128 47.483 82.863 59.118l1.297 0.402c36.335 13.017 78.255 20.542 121.933 20.542 2.381 0 4.756-0.022 7.127-0.067l-0.355 0.005c2.239 0.055 4.876 0.087 7.52 0.087 33.853 0 66.496-5.179 97.181-14.788l-2.301 0.621c27.484-8.221 51.417-20.467 72.535-36.269l-0.599 0.429c16.949-13.068 30.96-29.019 41.507-47.226l0.413-0.774c8.065-14.2 12.957-31.132 13.31-49.175l0.002-0.105c-0.12-15.571-6.59-29.608-16.946-39.667l-0.014-0.013c-10.112-11.044-24.595-17.944-40.689-17.944-0.568 0-1.134 0.009-1.698 0.026l0.083-0.002c-1.193-0.102-2.581-0.161-3.983-0.161-11.849 0-22.724 4.165-31.243 11.111l0.090-0.071c-10.072 9.874-18.605 21.266-25.242 33.817l-0.358 0.743c-10.258 20.333-24.154 37.4-40.987 50.971l-0.293 0.229c-18.936 11.906-41.961 18.969-66.636 18.969-3.577 0-7.12-0.148-10.622-0.44l0.458 0.031c-1.776 0.078-3.859 0.122-5.952 0.122-27.128 0-52.524-7.416-74.272-20.331l0.672 0.369c-17.089-9.436-28.713-26.931-29.754-47.222l-0.006-0.138c-0.006-0.28-0.010-0.61-0.010-0.941 0-10.822 3.767-20.765 10.062-28.587l-0.069 0.088c7.72-8.941 17.054-16.251 27.584-21.528l0.512-0.232c10.476-5.663 22.632-10.48 35.386-13.822l1.158-0.258c12.416-3.84 33.088-8.96 61.76-15.36 35.968-8.32 68.608-16.64 97.92-26.24 28.541-9.029 53.343-20.761 76.162-35.325l-1.282 0.765c20.349-13.074 36.801-30.53 48.331-51.115l0.373-0.725c11.054-20.937 17.542-45.76 17.542-72.098 0-1.654-0.026-3.301-0.076-4.942l0.006 0.24c0.002-0.337 0.004-0.736 0.004-1.135 0-36.235-11.406-69.805-30.824-97.317l0.356 0.532z" />
<glyph unicode="&#xe923;" glyph-name="telegram-icon" d="M18.112 466.56l235.904-88.96 91.328-295.040c3.787-11.382 14.34-19.445 26.778-19.445 6.587 0 12.645 2.261 17.442 6.050l-0.059-0.045 131.52 108.16c6.745 5.342 15.378 8.57 24.764 8.57 8.632 0 16.627-2.73 23.168-7.374l-0.124 0.084 237.248-173.44c4.479-3.168 10.054-5.064 16.071-5.064 13.468 0 24.718 9.498 27.416 22.161l0.033 0.184 173.824 839.68c0.407 1.786 0.64 3.838 0.64 5.943 0 15.411-12.493 27.904-27.904 27.904-3.59 0-7.022-0.678-10.174-1.913l0.19 0.065-968.384-375.68c-10.472-4.115-17.75-14.137-17.75-25.859 0-11.842 7.428-21.95 17.88-25.917l0.19-0.063zM330.688 424.96l460.8 285.44c1.186 0.724 2.62 1.153 4.155 1.153 4.454 0 8.064-3.61 8.064-8.064 0-2.321-0.981-4.413-2.55-5.885l-0.004-0.004-380.544-355.2c-13.017-12.356-21.894-28.961-24.402-47.586l-0.046-0.414-12.8-96c-0.588-6.042-5.641-10.726-11.787-10.726-5.46 0-10.057 3.696-11.425 8.723l-0.019 0.083-49.856 176c-1.121 3.812-1.766 8.192-1.766 12.723 0 16.719 8.782 31.387 21.985 39.643l0.196 0.114z" />
<glyph unicode="&#xe925;" glyph-name="viber-icon" horiz-adv-x="1026" d="M885.76 530.56c-8.645 154.783-128.321 279.091-280.249 294.926l-1.351 0.114c-3.672 0.153-7.144 0.612-10.509 1.353l0.397-0.073c-7.040 1.416-15.241 2.337-23.617 2.556l-0.191 0.004c-1.066 0.102-2.305 0.16-3.557 0.16-20.38 0-37.166-15.389-39.371-35.181l-0.016-0.179c-0.635-2.614-0.999-5.614-0.999-8.7 0-8.522 2.776-16.395 7.473-22.765l-0.074 0.106c11.365-11.427 26.933-18.664 44.188-19.198l0.1-0.002c4.298-0.067 8.446-0.53 12.462-1.354l-0.43 0.074c140.8-30.72 187.904-78.72 211.2-215.040 0.512-3.2 0.768-7.040 1.088-11.52-0.396-2.184-0.623-4.698-0.623-7.265 0-22.985 18.165-41.727 40.923-42.652l0.084-0.003c0.448-0.014 0.976-0.021 1.505-0.021 2.948 0 5.841 0.241 8.658 0.703l-0.307-0.042c19.683 3.573 34.413 20.58 34.413 41.028 0 3.613-0.46 7.118-1.324 10.461l0.063-0.289c-0.141 1.534-0.221 3.318-0.221 5.12s0.080 3.586 0.237 5.348l-0.016-0.228c0 1.28 0.064 1.92 0.064 2.56zM561.28 878.080c4.16 0 8.064-0.64 11.328-0.64 230.912-34.56 337.024-141.44 366.464-368 0.411-3.7 0.645-7.989 0.645-12.333 0-0.389-0.002-0.778-0.006-1.166v0.059c-0.761-3.090-1.197-6.638-1.197-10.288 0-24.015 18.896-43.617 42.632-44.748l0.102-0.004h1.28c0.591-0.030 1.282-0.047 1.978-0.047 10.848 0 20.727 4.152 28.132 10.954l-0.030-0.027c7.551 9.982 12.094 22.603 12.094 36.286 0 3.916-0.372 7.744-1.083 11.453l0.060-0.379c0 3.84-0.384 7.68 0 10.24-7.216 242.364-199.277 437.61-439.652 449.875l-1.116 0.045h-14.080c-3.015 0.429-6.496 0.674-10.036 0.674-0.792 0-1.581-0.012-2.367-0.037l0.115 0.003c-1.443 0.179-3.113 0.282-4.806 0.282-22.728 0-41.152-18.424-41.152-41.152 0-0.257 0.002-0.513 0.007-0.768l-0.001 0.038c0.97-22.877 19.752-41.057 42.78-41.057 2.797 0 5.53 0.268 8.177 0.78l-0.269-0.043zM927.936 216.96c-5.618 3.738-10.416 7.315-15.019 11.12l0.299-0.24c-25.216 19.84-52.032 37.76-77.952 55.68-5.376 3.84-10.752 7.040-16.128 10.88-25.055 19.666-56.58 32.151-90.939 33.904l-0.389 0.016c-42.29-1.937-78.625-25.696-98.188-60.21l-0.308-0.59c-9.035-15.826-25.63-26.428-44.737-26.879l-0.063-0.001c-13.242 0.581-25.593 3.824-36.719 9.204l0.559-0.244c-100.887 41.881-180.646 117.783-226.461 213.088l-1.123 2.592c-8.002 11.27-12.793 25.309-12.793 40.467 0 26.151 14.259 48.972 35.425 61.112l0.343 0.181c33.84 16.417 56.908 50.234 57.599 89.509l0.001 0.091c-36.923 101.338-101.279 185.3-184.097 245.362l-1.503 1.038c-10.673 3.803-22.984 6.002-35.808 6.002s-25.135-2.198-36.577-6.238l0.769 0.237c-56.243-15.657-101.884-52.864-128.352-101.937l-0.544-1.103c-9.714-21.908-15.369-47.462-15.369-74.337 0-29.271 6.709-56.976 18.673-81.66l-0.488 1.116c67.962-163.069 163.216-302.043 281.38-417.706l0.22-0.214c120.174-114.394 261.868-207.511 418.196-272.499l9.068-3.341c11.892-4.989 26.022-9.401 40.633-12.513l1.607-0.287c3.968-0.64 7.296-1.28 9.792-1.92 1.026-0.421 2.216-0.666 3.464-0.666 0.245 0 0.487 0.009 0.728 0.028l-0.032-0.002h1.344c91.279 8.786 167.058 67.146 200.688 147.524l0.592 1.596c3.567 10.208 5.627 21.975 5.627 34.224 0 43.267-25.71 80.529-62.685 97.344l-0.67 0.273zM595.904 694.4c-1.791 0.229-3.864 0.36-5.966 0.36-19.997 0-37.234-11.819-45.106-28.852l-0.128-0.308c-1.982-4.408-3.136-9.556-3.136-14.973 0-6.728 1.781-13.040 4.896-18.49l-0.096 0.183c9.060-11.728 22.952-19.343 38.641-19.838l0.079-0.002c47.318-2.907 84.631-41.849 84.928-89.571v-0.029c0.695-22.426 18.767-40.409 41.164-40.959l0.052-0.001h4.864c22.182 2.912 39.129 21.697 39.129 44.44 0 3.995-0.523 7.867-1.504 11.553l0.071-0.313c-2.389 42.707-21.469 80.54-50.764 107.415l-0.116 0.105c-26.931 28.913-64.639 47.478-106.691 49.269l-0.317 0.011z" />
<glyph unicode="&#xe928;" glyph-name="vk-icon" d="M1018.496 215.68c-1.023 2.452-2.181 4.557-3.533 6.518l0.077-0.118c-28.848 44.69-62.543 83.045-101.091 115.871l-0.733 0.609-1.024 1.28h-0.576l-0.512 0.64h-0.512c-15.263 13.883-29.363 28.084-42.714 42.969l-0.486 0.551c-6.572 7.016-10.609 16.477-10.609 26.881 0 5.548 1.148 10.827 3.219 15.614l-0.098-0.255c14.527 26.214 30.43 48.85 48.426 69.623l-0.426-0.503c14.528 18.56 26.112 33.28 34.624 44.8 61.504 80.64 88.128 131.84 80 154.24l-3.2 5.12c-4.294 4.534-9.956 7.731-16.324 8.931l-0.188 0.029c-6.037 1.567-12.968 2.467-20.109 2.467-4.947 0-9.793-0.432-14.502-1.26l0.5 0.073-153.6-1.28c-1.586 0.621-3.423 0.981-5.344 0.981s-3.758-0.36-5.447-1.017l0.103 0.035-6.912-1.92-2.688-1.28-2.112-1.28c-2.21-1.709-4.143-3.601-5.837-5.695l-0.051-0.065c-2.062-2.587-3.843-5.538-5.215-8.708l-0.097-0.252c-18.244-46.313-37.392-85.28-59.235-122.472l2.211 4.072c-13.184-21.76-25.216-40.32-36.288-56.32-8.566-13.212-17.695-24.72-27.797-35.289l0.085 0.089c-6.209-6.641-12.814-12.718-19.849-18.275l-0.375-0.285c-3.595-3.49-8.478-5.67-13.871-5.76h-0.017c-3.394 0.562-6.427 1.452-9.292 2.66l0.268-0.1c-5.106 3.131-9.196 7.466-11.946 12.624l-0.086 0.176c-3.283 5.922-5.554 12.857-6.377 20.229l-0.023 0.251c-1.024 8.32-1.664 15.36-1.856 21.12s0 14.080 0 24.96 0.576 18.56 0.576 22.4c0 13.44 0 27.52 0.768 43.52s0.96 27.52 1.344 37.12 0.512 18.56 0.512 28.8c0.025 0.893 0.039 1.943 0.039 2.997 0 7.313-0.69 14.464-2.008 21.393l0.112-0.71c-1.432 6.596-3.349 12.369-5.797 17.854l0.229-0.574c-2.349 5.158-6.123 9.323-10.819 12.092l-0.125 0.068c-5.093 3.39-11.105 5.855-17.573 6.998l-0.283 0.042c-20.017 4.504-43.006 7.085-66.598 7.085-1.877 0-3.75-0.016-5.619-0.049l0.281 0.004c-8.995 0.838-19.453 1.316-30.022 1.316-34.724 0-68.243-5.158-99.833-14.75l2.43 0.634c-7.848-4.116-14.548-9.244-20.251-15.32l-0.037-0.040c-6.4-7.68-7.296-12.16-2.688-12.8 18.118-1.376 34.055-9.723 45.318-22.334l0.058-0.066 3.2-6.4c3.211-7.009 5.788-15.167 7.329-23.685l0.095-0.635c2.466-11.237 4.184-24.419 4.782-37.893l0.018-0.507c0.861-9.871 1.353-21.358 1.353-32.96s-0.491-23.088-1.454-34.441l0.101 1.481q-2.688-26.88-5.056-42.24c-1.226-9.284-3.744-17.703-7.391-25.489l0.223 0.529c-2.087-4.48-4.221-8.256-6.607-11.851l0.207 0.331c-0.632-1.102-1.549-1.978-2.652-2.543l-0.036-0.017c-3.705-1.653-8.029-2.615-12.577-2.615-7.587 0-14.548 2.678-19.99 7.139l0.056-0.044c-8.209 6.261-15.455 12.979-22.010 20.327l-0.134 0.153c-9.065 10.571-17.518 22.284-24.953 34.678l-0.647 1.162c-9.271 14.817-19.204 32.848-28.228 51.403l-1.596 3.637-8.576 15.36q-7.936 14.4-21.824 42.24c-9.216 19.2-17.408 37.12-24.512 55.040-2.615 6.845-7.040 12.507-12.693 16.567l-0.107 0.073-2.688 1.28c-2.437 1.853-5.259 3.373-8.301 4.417l-0.211 0.063c-3.563 1.8-7.698 3.144-12.057 3.811l-0.231 0.029-146.048-1.28c-1.438 0.201-3.099 0.316-4.786 0.316-9.993 0-19.044-4.032-25.616-10.559l0.002 0.002-2.112-3.2c-1.051-2.005-1.667-4.379-1.667-6.898 0-0.501 0.024-0.996 0.072-1.484l-0.005 0.062c0.273-5.14 1.424-9.941 3.305-14.356l-0.105 0.276c21.312-49.28 44.48-97.28 69.568-142.72s46.848-83.2 65.28-111.36 37.312-54.4 56.512-79.36 32-40.96 38.4-48 11.072-12.16 14.656-15.36l13.312-12.8c11.276-10.618 23.54-20.505 36.531-29.409l1.037-0.671c15.466-11.136 33.403-22.573 51.965-33.033l2.947-1.527c20.25-11.624 43.676-21.266 68.392-27.715l2.008-0.445c19.025-5.56 40.88-8.759 63.483-8.759 5.045 0 10.053 0.159 15.019 0.473l-0.678-0.034h61.312c0.15-0.002 0.326-0.003 0.504-0.003 10.833 0 20.637 4.405 27.719 11.522l0.002 0.002 2.112 2.56c1.792 2.754 3.183 5.962 3.991 9.394l0.041 0.206c1.181 4.205 1.861 9.034 1.861 14.021 0 0.246-0.002 0.491-0.005 0.736v-0.037c-0.069 1.796-0.109 3.904-0.109 6.022 0 12.146 1.298 23.988 3.764 35.397l-0.199-1.098c1.977 10.359 5.126 19.577 9.372 28.155l-0.284-0.635c3.208 5.88 7.018 10.934 11.454 15.358l0.002 0.002c2.52 3.075 5.531 5.636 8.932 7.597l0.156 0.083c1.639 0.585 3.033 1.233 4.356 1.989l-0.132-0.069c2.032 0.419 4.366 0.66 6.757 0.66 9.008 0 17.221-3.409 23.417-9.007l-0.030 0.027c12.167-9.018 22.822-18.902 32.303-29.833l0.209-0.247c10.112-12.16 22.272-26.24 36.48-40.96 11.256-12.403 23.463-23.535 36.645-33.44l0.667-0.48 10.688-6.4c7.74-4.103 16.905-8.004 26.414-11.148l1.298-0.372c5.992-2.114 12.901-3.335 20.096-3.335 3.457 0 6.848 0.282 10.152 0.824l-0.36-0.049 136.448 1.92c0.856-0.043 1.858-0.067 2.866-0.067 10.451 0 20.287 2.631 28.882 7.267l-0.324-0.16c6.079 2.884 10.792 7.825 13.311 13.904l0.065 0.176c0.628 2.693 0.987 5.784 0.987 8.96s-0.36 6.267-1.041 9.237l0.053-0.277c-0.713 5.25-2.013 9.998-3.853 14.467l0.141-0.387z" />
</font>
</defs>
</svg>
